<?xml version="1.0" encoding="UTF-8"?>
<svg id="Capa_3" data-name="Capa 3" xmlns="http://www.w3.org/2000/svg" viewBox="0 0 772 614.03">
  <defs>
    <style>
      .cls-1 {
        fill: #fff;
      }

      .cls-2 {
        fill: #ff735d;
      }

      .cls-3 {
        fill: #fafafa;
      }

      .cls-4 {
        opacity: .6;
      }

      .cls-5 {
        fill: #f5f5f5;
      }

      .cls-6 {
        fill: #58deff;
      }

      .cls-7 {
        opacity: .2;
      }

      .cls-8 {
        fill: #0091b4;
      }

      .cls-9 {
        fill: #e1e1e1;
      }

      .cls-10 {
        opacity: .3;
      }

      .cls-11 {
        fill: #ffc19d;
      }

      .cls-12 {
        fill: #ff9c6a;
      }

      .cls-13 {
        fill: #375a64;
      }

      .cls-14 {
        fill: #00cfff;
      }

      .cls-15 {
        fill: #ececec;
      }

      .cls-16 {
        fill: #1a2e35;
      }
    </style>
  </defs>
  <g>
    <g>
      <path class="cls-5" d="M139.8,116.16c3.07,21.12-11.6,40.73-32.77,43.81-21.17,3.08-40.82-11.55-43.89-32.67-3.07-21.12,11.6-40.73,32.77-43.81,21.17-3.08,40.82,11.55,43.89,32.67Z"/>
      <path class="cls-15" d="M130.68,117.49c2.34,16.09-8.84,31.04-24.97,33.39-16.13,2.34-31.1-8.8-33.44-24.9-2.34-16.09,8.84-31.04,24.97-33.39,16.13-2.34,31.1,8.8,33.44,24.9Z"/>
      <path class="cls-9" d="M130.54,116.58c-.18,.03-.49-1.23-1.28-3.4-.8-2.15-2.16-5.24-4.67-8.46-1.25-1.6-2.79-3.23-4.64-4.75-1.86-1.49-4.01-2.89-6.45-3.99-1.22-.55-2.5-1.04-3.85-1.42-1.34-.39-2.74-.71-4.18-.89-1.44-.19-2.92-.3-4.41-.26-1.5,.04-3.02,.18-4.53,.44-1.52,.28-2.99,.67-4.41,1.15-1.42,.48-2.77,1.09-4.06,1.76-1.29,.67-2.49,1.45-3.62,2.27-1.13,.82-2.17,1.72-3.12,2.66-1.92,1.87-3.45,3.92-4.68,5.96-1.21,2.06-2.09,4.11-2.72,6.05-1.25,3.89-1.46,7.25-1.47,9.55,0,2.31,.14,3.6-.03,3.63-.13,.03-.57-1.22-.85-3.59-.26-2.35-.3-5.88,.81-10.05,.56-2.08,1.41-4.3,2.63-6.53,1.23-2.22,2.82-4.46,4.83-6.51,1-1.02,2.1-2.02,3.3-2.92,1.2-.91,2.48-1.76,3.87-2.5,1.38-.74,2.83-1.41,4.36-1.93,1.53-.53,3.12-.95,4.75-1.25,1.64-.28,3.27-.43,4.89-.46,1.62-.03,3.21,.1,4.76,.31,1.55,.21,3.05,.57,4.49,1.01,1.44,.43,2.81,.98,4.1,1.6,2.6,1.23,4.86,2.78,6.78,4.44,1.91,1.67,3.47,3.47,4.71,5.23,2.48,3.53,3.66,6.86,4.22,9.15,.56,2.32,.57,3.64,.44,3.66Z"/>
    </g>
    <path class="cls-9" d="M107.3,138.68l.81,5.08-4.53,.72-.79-4.94c-4.53,.45-9.06-.27-11.87-1.82l1.61-5.93c2.54,1.31,5.99,2.02,9.31,1.81l-1.21-7.57c-5.23-.42-11.12-1.19-12.15-7.68-.77-4.8,2.06-9.49,9.09-11.45l-.81-5.03,4.53-.73,.79,4.94c3.44-.27,6.9,.1,9.64,1.29l-1.37,5.94c-2.52-.94-5-1.34-7.31-1.25l1.23,7.71c5.22,.37,11.02,1.16,12.04,7.55,.75,4.71-2.04,9.35-9.02,11.35Zm-7.74-19.31l-1.03-6.44c-2.31,.93-3.06,2.4-2.82,3.89,.25,1.59,1.75,2.23,3.85,2.54Zm9.55,9.68c-.25-1.59-1.71-2.24-3.76-2.61l1,6.26c2.19-.86,3-2.2,2.76-3.65Z"/>
  </g>
  <g>
    <g>
      <path class="cls-5" d="M759.11,445.49c2.32,15.99-8.78,30.83-24.81,33.16-16.02,2.33-30.9-8.74-33.22-24.73-2.32-15.99,8.78-30.83,24.81-33.16,16.02-2.33,30.9,8.74,33.22,24.73Z"/>
      <path class="cls-15" d="M752.2,446.5c1.77,12.18-6.69,23.5-18.91,25.27-12.21,1.77-23.55-6.66-25.32-18.85-1.77-12.18,6.69-23.5,18.9-25.27,12.21-1.77,23.55,6.66,25.32,18.85Z"/>
      <path class="cls-9" d="M752.1,445.8c-.13,.02-.37-.93-.97-2.57-.61-1.63-1.63-3.97-3.54-6.41-.95-1.21-2.11-2.45-3.51-3.59-1.41-1.13-3.03-2.19-4.88-3.02-.92-.42-1.89-.79-2.91-1.08-1.02-.29-2.07-.53-3.16-.67-1.09-.14-2.21-.22-3.34-.2-1.13,.03-2.28,.14-3.43,.33-1.15,.21-2.26,.5-3.34,.87-1.08,.36-2.1,.83-3.07,1.33-.98,.51-1.89,1.1-2.74,1.72-.86,.62-1.64,1.3-2.36,2.01-1.45,1.41-2.61,2.97-3.54,4.51-.92,1.56-1.59,3.11-2.06,4.58-.95,2.94-1.1,5.49-1.11,7.23,0,1.75,.11,2.73-.02,2.75-.1,.02-.43-.92-.64-2.71-.2-1.78-.23-4.45,.62-7.61,.42-1.57,1.06-3.25,1.99-4.94,.93-1.68,2.13-3.38,3.66-4.92,.76-.78,1.59-1.53,2.5-2.21,.91-.69,1.88-1.33,2.93-1.89,1.05-.56,2.14-1.06,3.3-1.46,1.16-.4,2.36-.72,3.6-.95,1.24-.21,2.48-.33,3.7-.35,1.23-.02,2.43,.07,3.61,.24,1.17,.16,2.31,.44,3.4,.77,1.09,.33,2.13,.75,3.11,1.21,1.97,.93,3.68,2.11,5.13,3.36,1.45,1.27,2.63,2.63,3.57,3.96,1.88,2.67,2.77,5.19,3.2,6.93,.42,1.75,.43,2.75,.33,2.77Z"/>
    </g>
    <path class="cls-9" d="M734.51,462.53l.62,3.84-3.43,.55-.6-3.74c-3.43,.34-6.86-.2-8.98-1.38l1.22-4.49c1.92,1,4.54,1.53,7.05,1.37l-.92-5.73c-3.96-.32-8.41-.9-9.2-5.81-.58-3.64,1.56-7.18,6.88-8.67l-.61-3.81,3.43-.55,.6,3.74c2.61-.21,5.22,.08,7.3,.98l-1.04,4.5c-1.91-.71-3.79-1.01-5.54-.94l.93,5.83c3.95,.28,8.34,.88,9.11,5.72,.57,3.57-1.54,7.07-6.82,8.59Zm-5.86-14.62l-.78-4.87c-1.75,.7-2.31,1.81-2.13,2.95,.19,1.2,1.33,1.69,2.91,1.93Zm7.23,7.32c-.19-1.2-1.29-1.69-2.85-1.97l.76,4.74c1.66-.65,2.27-1.66,2.09-2.76Z"/>
  </g>
  <g>
    <g>
      <path class="cls-5" d="M102.95,433.42c3.07,21.14-11.61,40.77-32.8,43.85-21.19,3.08-40.85-11.56-43.92-32.7-3.07-21.14,11.61-40.77,32.8-43.85,21.19-3.08,40.85,11.56,43.92,32.7Z"/>
      <path class="cls-15" d="M93.82,434.75c2.34,16.11-8.85,31.07-24.99,33.41-16.14,2.35-31.13-8.81-33.47-24.92-2.34-16.11,8.85-31.07,24.99-33.41,16.14-2.35,31.13,8.81,33.47,24.92Z"/>
      <path class="cls-9" d="M93.68,433.83c-.18,.03-.49-1.23-1.28-3.4-.81-2.16-2.16-5.25-4.67-8.47-1.26-1.6-2.79-3.24-4.64-4.75-1.86-1.5-4.01-2.9-6.45-3.99-1.22-.55-2.5-1.04-3.85-1.42-1.34-.39-2.74-.71-4.18-.89-1.44-.19-2.92-.3-4.42-.26-1.5,.04-3.02,.18-4.54,.44-1.52,.28-2.99,.67-4.41,1.15-1.42,.48-2.77,1.09-4.06,1.76-1.29,.67-2.49,1.45-3.62,2.27-1.13,.82-2.17,1.73-3.12,2.66-1.92,1.87-3.46,3.92-4.69,5.97-1.21,2.06-2.1,4.12-2.72,6.06-1.25,3.89-1.46,7.26-1.47,9.56,0,2.31,.14,3.61-.03,3.64-.13,.03-.57-1.22-.85-3.59-.26-2.35-.3-5.88,.81-10.05,.56-2.08,1.41-4.3,2.63-6.53,1.24-2.22,2.82-4.46,4.84-6.51,1-1.03,2.1-2.02,3.3-2.92,1.2-.91,2.49-1.76,3.87-2.5,1.38-.74,2.84-1.41,4.37-1.93,1.53-.53,3.12-.95,4.76-1.25,1.64-.28,3.28-.43,4.9-.46,1.62-.03,3.22,.1,4.77,.31,1.55,.21,3.05,.58,4.49,1.01,1.44,.43,2.81,.99,4.11,1.6,2.6,1.23,4.86,2.79,6.79,4.45,1.91,1.68,3.48,3.47,4.72,5.23,2.49,3.53,3.66,6.86,4.23,9.16,.56,2.32,.57,3.64,.44,3.66Z"/>
    </g>
    <path class="cls-9" d="M70.43,455.95l.81,5.08-4.54,.72-.79-4.94c-4.53,.45-9.07-.27-11.88-1.82l1.61-5.93c2.54,1.32,6,2.02,9.32,1.81l-1.21-7.58c-5.23-.42-11.12-1.2-12.16-7.68-.77-4.81,2.06-9.5,9.1-11.46l-.81-5.04,4.54-.73,.79,4.95c3.45-.27,6.9,.1,9.65,1.29l-1.37,5.94c-2.52-.94-5.01-1.34-7.32-1.25l1.24,7.71c5.22,.37,11.03,1.17,12.05,7.56,.76,4.72-2.04,9.35-9.02,11.36Zm-7.75-19.32l-1.03-6.44c-2.32,.93-3.06,2.4-2.82,3.89,.25,1.59,1.75,2.23,3.85,2.55Zm9.55,9.68c-.25-1.59-1.71-2.24-3.77-2.61l1,6.26c2.19-.86,3-2.2,2.77-3.65Z"/>
  </g>
  <path class="cls-5" d="M404.24,96.39c1.9-1.15,3.93-2.02,6.01-2.61l1.24-5.95,10.06-.18,1.45,5.9c2.11,.52,4.16,1.32,6.1,2.4l5.08-3.33,7.23,6.99-3.15,5.19c1.15,1.9,2.02,3.93,2.61,6.01l5.95,1.24,.18,10.05-5.9,1.45c-.52,2.11-1.32,4.16-2.4,6.1l3.33,5.08-6.98,7.24-5.2-3.15c-1.9,1.15-3.93,2.02-6.01,2.61l-1.24,5.95-10.06,.18-1.45-5.9c-2.11-.52-4.16-1.32-6.1-2.4l-5.08,3.33-7.24-6.99,3.15-5.2c-1.15-1.9-2.02-3.93-2.61-6.01l-5.95-1.24-.18-10.05,5.9-1.45c.52-2.11,1.32-4.16,2.4-6.1l-3.33-5.08,6.98-7.23,5.2,3.15h0Zm5.36,13.4c-4.14,4.29-4.02,11.12,.27,15.26,4.29,4.14,11.12,4.02,15.25-.27,4.14-4.29,4.02-11.12-.27-15.25-4.29-4.14-11.12-4.02-15.25,.27Z"/>
  <path class="cls-5" d="M457.09,72.61c1.2-.73,2.48-1.27,3.79-1.65l.78-3.76,6.35-.11,.91,3.73c1.33,.33,2.63,.83,3.85,1.51l3.21-2.1,4.57,4.41-1.99,3.28c.73,1.2,1.27,2.48,1.65,3.8l3.76,.78,.11,6.35-3.73,.91c-.33,1.33-.83,2.63-1.51,3.85l2.1,3.21-4.41,4.57-3.28-1.99c-1.2,.73-2.48,1.27-3.8,1.65l-.78,3.76-6.35,.11-.91-3.73c-1.33-.33-2.63-.83-3.85-1.51l-3.21,2.1-4.57-4.41,1.99-3.28c-.73-1.2-1.28-2.48-1.65-3.79l-3.76-.78-.11-6.35,3.73-.91c.33-1.33,.83-2.63,1.51-3.85l-2.1-3.21,4.41-4.57,3.28,1.99h0Zm3.38,8.45c-2.61,2.71-2.54,7.02,.17,9.63,2.7,2.61,7.02,2.54,9.63-.17,2.61-2.71,2.54-7.02-.17-9.63-2.71-2.61-7.01-2.54-9.63,.17Z"/>
  <path class="cls-5" d="M542.35,169.62c1.98-1.2,4.09-2.1,6.26-2.72l1.29-6.2,10.47-.18,1.51,6.15c2.2,.54,4.33,1.37,6.36,2.5l5.29-3.47,7.54,7.28-3.28,5.41c1.2,1.98,2.1,4.09,2.72,6.27l6.2,1.29,.18,10.47-6.15,1.51c-.54,2.19-1.37,4.33-2.5,6.36l3.47,5.29-7.28,7.54-5.41-3.28c-1.98,1.2-4.09,2.1-6.26,2.72l-1.29,6.2-10.47,.18-1.51-6.15c-2.19-.54-4.33-1.37-6.36-2.5l-5.29,3.47-7.54-7.28,3.28-5.41c-1.2-1.98-2.1-4.09-2.72-6.26l-6.2-1.29-.18-10.47,6.15-1.51c.54-2.19,1.37-4.33,2.5-6.36l-3.47-5.29,7.28-7.54,5.41,3.28h0Zm5.58,13.95c-4.31,4.47-4.19,11.58,.28,15.89,4.47,4.31,11.58,4.19,15.89-.28,4.31-4.47,4.19-11.58-.28-15.89-4.47-4.31-11.58-4.19-15.89,.28Z"/>
  <path class="cls-5" d="M706.02,221.72c1.98-1.2,4.09-2.1,6.26-2.72l1.29-6.2,10.48-.18,1.51,6.15c2.2,.54,4.33,1.37,6.36,2.5l5.29-3.47,7.54,7.28-3.28,5.41c1.2,1.98,2.1,4.09,2.72,6.27l6.2,1.29,.18,10.47-6.15,1.51c-.54,2.19-1.37,4.33-2.5,6.36l3.47,5.29-7.28,7.54-5.41-3.28c-1.98,1.2-4.09,2.1-6.26,2.72l-1.29,6.2-10.47,.18-1.51-6.15c-2.19-.54-4.33-1.37-6.36-2.5l-5.29,3.47-7.54-7.28,3.28-5.41c-1.2-1.98-2.1-4.09-2.72-6.26l-6.2-1.29-.18-10.47,6.15-1.51c.54-2.19,1.37-4.33,2.5-6.36l-3.47-5.29,7.28-7.54,5.41,3.28h0Zm5.58,13.95c-4.31,4.47-4.19,11.58,.28,15.89,4.47,4.31,11.58,4.19,15.89-.28,4.31-4.47,4.19-11.58-.28-15.89-4.47-4.31-11.58-4.19-15.89,.28Z"/>
  <path class="cls-5" d="M30.46,275.8c1.98-1.2,4.09-2.1,6.26-2.72l1.29-6.2,10.47-.18,1.51,6.15c2.2,.54,4.33,1.37,6.36,2.5l5.29-3.47,7.54,7.28-3.28,5.41c1.2,1.98,2.1,4.09,2.72,6.27l6.2,1.29,.18,10.47-6.15,1.51c-.54,2.19-1.37,4.33-2.5,6.36l3.47,5.29-7.28,7.54-5.41-3.28c-1.98,1.2-4.09,2.1-6.26,2.72l-1.29,6.2-10.47,.18-1.51-6.15c-2.19-.54-4.33-1.37-6.36-2.5l-5.29,3.47-7.54-7.28,3.28-5.41c-1.2-1.98-2.1-4.09-2.72-6.26l-6.2-1.29-.18-10.47,6.15-1.51c.54-2.19,1.37-4.33,2.5-6.36l-3.47-5.29,7.28-7.54,5.41,3.28h0Zm5.58,13.95c-4.31,4.47-4.19,11.58,.28,15.89,4.47,4.31,11.58,4.19,15.89-.28,4.31-4.47,4.19-11.58-.28-15.89-4.47-4.31-11.58-4.19-15.89,.28Z"/>
  <path class="cls-16" d="M748.38,531.76c0,.15-162.1,.27-362.02,.27s-362.05-.12-362.05-.27,162.07-.27,362.05-.27,362.02,.12,362.02,.27Z"/>
  <g>
    <g>
      <rect class="cls-14" x="80.38" y="441.53" width="76.75" height="15.48" transform="translate(237.5 898.53) rotate(180)"/>
      <path class="cls-16" d="M152.19,441.79c-.18,0-.33,3.36-.33,7.5s.15,7.5,.33,7.5,.33-3.36,.33-7.5-.15-7.5-.33-7.5Z"/>
      <path class="cls-16" d="M145.07,441.79c-.18,0-.33,3.36-.33,7.5s.15,7.5,.33,7.5,.33-3.36,.33-7.5-.15-7.5-.33-7.5Z"/>
      <path class="cls-16" d="M138.04,441.79c-.18,0-.33,3.36-.33,7.5s.15,7.5,.33,7.5,.33-3.36,.33-7.5-.15-7.5-.33-7.5Z"/>
      <path class="cls-16" d="M131.05,441.79c-.18,0-.33,3.36-.33,7.5s.15,7.5,.33,7.5,.33-3.36,.33-7.5-.15-7.5-.33-7.5Z"/>
      <path class="cls-16" d="M124.05,441.79c-.18,0-.33,3.36-.33,7.5s.15,7.5,.33,7.5,.33-3.36,.33-7.5-.15-7.5-.33-7.5Z"/>
      <path class="cls-16" d="M117.06,441.79c-.18,0-.33,3.36-.33,7.5s.15,7.5,.33,7.5,.33-3.36,.33-7.5-.15-7.5-.33-7.5Z"/>
      <path class="cls-16" d="M110.06,441.79c-.18,0-.33,3.36-.33,7.5s.15,7.5,.33,7.5,.33-3.36,.33-7.5-.15-7.5-.33-7.5Z"/>
      <path class="cls-16" d="M103.07,441.79c-.18,0-.33,3.36-.33,7.5s.15,7.5,.33,7.5,.33-3.36,.33-7.5-.15-7.5-.33-7.5Z"/>
      <path class="cls-16" d="M96.07,441.79c-.18,0-.33,3.36-.33,7.5s.15,7.5,.33,7.5,.33-3.36,.33-7.5-.15-7.5-.33-7.5Z"/>
      <path class="cls-16" d="M89.08,441.79c-.18,0-.33,3.36-.33,7.5s.15,7.5,.33,7.5,.33-3.36,.33-7.5-.15-7.5-.33-7.5Z"/>
      <path class="cls-16" d="M82.08,441.79c-.18,0-.33,3.36-.33,7.5s.15,7.5,.33,7.5,.33-3.36,.33-7.5-.15-7.5-.33-7.5Z"/>
      <g class="cls-10">
        <path d="M155.89,441.54c-23.96,3.25-50.38,3.37-74.29,.02l74.29-.02Z"/>
      </g>
      <path class="cls-16" d="M80.36,441.58c0,.18,17.15,.33,38.3,.33s38.31-.15,38.31-.33-17.15-.33-38.31-.33-38.3,.15-38.3,.33Z"/>
    </g>
    <g>
      <rect class="cls-14" x="78.65" y="456.74" width="76.75" height="15.48" transform="translate(234.05 928.97) rotate(180)"/>
      <path class="cls-16" d="M150.47,457c-.18,0-.33,3.36-.33,7.5s.15,7.5,.33,7.5,.33-3.36,.33-7.5-.15-7.5-.33-7.5Z"/>
      <path class="cls-16" d="M143.35,457c-.18,0-.33,3.36-.33,7.5s.15,7.5,.33,7.5,.33-3.36,.33-7.5-.15-7.5-.33-7.5Z"/>
      <path class="cls-16" d="M136.32,457c-.18,0-.33,3.36-.33,7.5s.15,7.5,.33,7.5,.33-3.36,.33-7.5-.15-7.5-.33-7.5Z"/>
      <path class="cls-16" d="M129.32,457c-.18,0-.33,3.36-.33,7.5s.15,7.5,.33,7.5,.33-3.36,.33-7.5-.15-7.5-.33-7.5Z"/>
      <path class="cls-16" d="M122.33,457c-.18,0-.33,3.36-.33,7.5s.15,7.5,.33,7.5,.33-3.36,.33-7.5-.15-7.5-.33-7.5Z"/>
      <path class="cls-16" d="M115.33,457c-.18,0-.33,3.36-.33,7.5s.15,7.5,.33,7.5,.33-3.36,.33-7.5-.15-7.5-.33-7.5Z"/>
      <path class="cls-16" d="M108.34,457c-.18,0-.33,3.36-.33,7.5s.15,7.5,.33,7.5,.33-3.36,.33-7.5-.15-7.5-.33-7.5Z"/>
      <path class="cls-16" d="M101.34,457c-.18,0-.33,3.36-.33,7.5s.15,7.5,.33,7.5,.33-3.36,.33-7.5-.15-7.5-.33-7.5Z"/>
      <path class="cls-16" d="M94.35,457c-.18,0-.33,3.36-.33,7.5s.15,7.5,.33,7.5,.33-3.36,.33-7.5-.15-7.5-.33-7.5Z"/>
      <path class="cls-16" d="M87.35,457c-.18,0-.33,3.36-.33,7.5s.15,7.5,.33,7.5,.33-3.36,.33-7.5-.15-7.5-.33-7.5Z"/>
      <path class="cls-16" d="M80.36,457c-.18,0-.33,3.36-.33,7.5s.15,7.5,.33,7.5,.33-3.36,.33-7.5-.15-7.5-.33-7.5Z"/>
      <g class="cls-10">
        <path d="M154.17,456.76c-23.96,3.25-50.38,3.37-74.29,.02l74.29-.02Z"/>
      </g>
      <path class="cls-16" d="M78.63,456.79c0,.18,17.15,.33,38.3,.33s38.31-.15,38.31-.33-17.15-.33-38.31-.33-38.3,.15-38.3,.33Z"/>
    </g>
    <g>
      <rect class="cls-14" x="85.94" y="471.72" width="76.75" height="15.48" transform="translate(248.63 958.92) rotate(180)"/>
      <path class="cls-16" d="M157.75,471.98c-.18,0-.33,3.36-.33,7.5s.15,7.5,.33,7.5,.33-3.36,.33-7.5-.15-7.5-.33-7.5Z"/>
      <path class="cls-16" d="M150.64,471.98c-.18,0-.33,3.36-.33,7.5s.15,7.5,.33,7.5,.33-3.36,.33-7.5-.15-7.5-.33-7.5Z"/>
      <path class="cls-16" d="M143.6,471.98c-.18,0-.33,3.36-.33,7.5s.15,7.5,.33,7.5,.33-3.36,.33-7.5-.15-7.5-.33-7.5Z"/>
      <path class="cls-16" d="M136.61,471.98c-.18,0-.33,3.36-.33,7.5s.15,7.5,.33,7.5,.33-3.36,.33-7.5-.15-7.5-.33-7.5Z"/>
      <path class="cls-16" d="M129.61,471.98c-.18,0-.33,3.36-.33,7.5s.15,7.5,.33,7.5,.33-3.36,.33-7.5-.15-7.5-.33-7.5Z"/>
      <path class="cls-16" d="M122.62,471.98c-.18,0-.33,3.36-.33,7.5s.15,7.5,.33,7.5,.33-3.36,.33-7.5-.15-7.5-.33-7.5Z"/>
      <path class="cls-16" d="M115.62,471.98c-.18,0-.33,3.36-.33,7.5s.15,7.5,.33,7.5,.33-3.36,.33-7.5-.15-7.5-.33-7.5Z"/>
      <path class="cls-16" d="M108.63,471.98c-.18,0-.33,3.36-.33,7.5s.15,7.5,.33,7.5,.33-3.36,.33-7.5-.15-7.5-.33-7.5Z"/>
      <path class="cls-16" d="M101.63,471.98c-.18,0-.33,3.36-.33,7.5s.15,7.5,.33,7.5,.33-3.36,.33-7.5-.15-7.5-.33-7.5Z"/>
      <path class="cls-16" d="M94.64,471.98c-.18,0-.33,3.36-.33,7.5s.15,7.5,.33,7.5,.33-3.36,.33-7.5-.15-7.5-.33-7.5Z"/>
      <path class="cls-16" d="M87.64,471.98c-.18,0-.33,3.36-.33,7.5s.15,7.5,.33,7.5,.33-3.36,.33-7.5-.15-7.5-.33-7.5Z"/>
      <g class="cls-10">
        <path d="M161.45,471.74c-23.96,3.25-50.38,3.37-74.29,.02l74.29-.02Z"/>
      </g>
      <path class="cls-16" d="M85.92,471.77c0,.18,17.15,.33,38.3,.33s38.31-.15,38.31-.33-17.15-.33-38.31-.33-38.3,.15-38.3,.33Z"/>
    </g>
    <g>
      <rect class="cls-14" x="76.95" y="487.08" width="76.75" height="14.88" transform="translate(230.64 989.05) rotate(180)"/>
      <path class="cls-16" d="M148.76,487.33c-.18,0-.33,3.23-.33,7.22s.15,7.22,.33,7.22,.33-3.23,.33-7.22-.15-7.22-.33-7.22Z"/>
      <path class="cls-16" d="M141.65,487.33c-.18,0-.33,3.23-.33,7.22s.15,7.22,.33,7.22,.33-3.23,.33-7.22-.15-7.22-.33-7.22Z"/>
      <path class="cls-16" d="M134.61,487.33c-.18,0-.33,3.23-.33,7.22s.15,7.22,.33,7.22,.33-3.23,.33-7.22-.15-7.22-.33-7.22Z"/>
      <path class="cls-16" d="M127.62,487.33c-.18,0-.33,3.23-.33,7.22s.15,7.22,.33,7.22,.33-3.23,.33-7.22-.15-7.22-.33-7.22Z"/>
      <path class="cls-16" d="M120.62,487.33c-.18,0-.33,3.23-.33,7.22s.15,7.22,.33,7.22,.33-3.23,.33-7.22-.15-7.22-.33-7.22Z"/>
      <path class="cls-16" d="M113.63,487.33c-.18,0-.33,3.23-.33,7.22s.15,7.22,.33,7.22,.33-3.23,.33-7.22-.15-7.22-.33-7.22Z"/>
      <path class="cls-16" d="M106.63,487.33c-.18,0-.33,3.23-.33,7.22s.15,7.22,.33,7.22,.33-3.23,.33-7.22-.15-7.22-.33-7.22Z"/>
      <path class="cls-16" d="M99.64,487.33c-.18,0-.33,3.23-.33,7.22s.15,7.22,.33,7.22,.33-3.23,.33-7.22-.15-7.22-.33-7.22Z"/>
      <path class="cls-16" d="M92.64,487.33c-.18,0-.33,3.23-.33,7.22s.15,7.22,.33,7.22,.33-3.23,.33-7.22-.15-7.22-.33-7.22Z"/>
      <path class="cls-16" d="M85.65,487.33c-.18,0-.33,3.23-.33,7.22s.15,7.22,.33,7.22,.33-3.23,.33-7.22-.15-7.22-.33-7.22Z"/>
      <path class="cls-16" d="M78.65,487.33c-.18,0-.33,3.23-.33,7.22s.15,7.22,.33,7.22,.33-3.23,.33-7.22-.15-7.22-.33-7.22Z"/>
      <g class="cls-10">
        <path d="M152.46,487.1c-23.96,4.16-50.38,4.3-74.29,.02l74.29-.02Z"/>
      </g>
      <path class="cls-16" d="M76.93,487.13c0,.18,17.15,.33,38.3,.33s38.31-.15,38.31-.33-17.15-.33-38.31-.33-38.3,.15-38.3,.33Z"/>
    </g>
    <g>
      <rect class="cls-14" x="81.88" y="501.97" width="76.75" height="14.88" transform="translate(240.51 1018.83) rotate(180)"/>
      <path class="cls-16" d="M153.7,502.22c-.18,0-.33,3.23-.33,7.22s.15,7.22,.33,7.22,.33-3.23,.33-7.22-.15-7.22-.33-7.22Z"/>
      <path class="cls-16" d="M146.58,502.22c-.18,0-.33,3.23-.33,7.22s.15,7.22,.33,7.22,.33-3.23,.33-7.22-.15-7.22-.33-7.22Z"/>
      <path class="cls-16" d="M139.55,502.22c-.18,0-.33,3.23-.33,7.22s.15,7.22,.33,7.22,.33-3.23,.33-7.22-.15-7.22-.33-7.22Z"/>
      <path class="cls-16" d="M132.55,502.22c-.18,0-.33,3.23-.33,7.22s.15,7.22,.33,7.22,.33-3.23,.33-7.22-.15-7.22-.33-7.22Z"/>
      <path class="cls-16" d="M125.56,502.22c-.18,0-.33,3.23-.33,7.22s.15,7.22,.33,7.22,.33-3.23,.33-7.22-.15-7.22-.33-7.22Z"/>
      <path class="cls-16" d="M118.56,502.22c-.18,0-.33,3.23-.33,7.22s.15,7.22,.33,7.22,.33-3.23,.33-7.22-.15-7.22-.33-7.22Z"/>
      <path class="cls-16" d="M111.57,502.22c-.18,0-.33,3.23-.33,7.22s.15,7.22,.33,7.22,.33-3.23,.33-7.22-.15-7.22-.33-7.22Z"/>
      <path class="cls-16" d="M104.57,502.22c-.18,0-.33,3.23-.33,7.22s.15,7.22,.33,7.22,.33-3.23,.33-7.22-.15-7.22-.33-7.22Z"/>
      <path class="cls-16" d="M97.58,502.22c-.18,0-.33,3.23-.33,7.22s.15,7.22,.33,7.22,.33-3.23,.33-7.22-.15-7.22-.33-7.22Z"/>
      <path class="cls-16" d="M90.58,502.22c-.18,0-.33,3.23-.33,7.22s.15,7.22,.33,7.22,.33-3.23,.33-7.22-.15-7.22-.33-7.22Z"/>
      <path class="cls-16" d="M83.59,502.22c-.18,0-.33,3.23-.33,7.22s.15,7.22,.33,7.22,.33-3.23,.33-7.22-.15-7.22-.33-7.22Z"/>
      <g class="cls-10">
        <path d="M157.4,501.99c-23.96,4.7-50.38,4.87-74.29,.02l74.29-.02Z"/>
      </g>
      <path class="cls-16" d="M81.86,502.02c0,.18,17.15,.33,38.3,.33s38.31-.15,38.31-.33-17.15-.33-38.31-.33-38.3,.15-38.3,.33Z"/>
    </g>
    <g>
      <rect class="cls-14" x="77.5" y="516.66" width="76.75" height="14.88" transform="translate(231.74 1048.19) rotate(180)"/>
      <path class="cls-16" d="M149.31,516.9c-.18,0-.33,3.23-.33,7.22s.15,7.22,.33,7.22,.33-3.23,.33-7.22-.15-7.22-.33-7.22Z"/>
      <path class="cls-16" d="M142.2,516.9c-.18,0-.33,3.23-.33,7.22s.15,7.22,.33,7.22,.33-3.23,.33-7.22-.15-7.22-.33-7.22Z"/>
      <path class="cls-16" d="M135.16,516.9c-.18,0-.33,3.23-.33,7.22s.15,7.22,.33,7.22,.33-3.23,.33-7.22-.15-7.22-.33-7.22Z"/>
      <path class="cls-16" d="M128.17,516.9c-.18,0-.33,3.23-.33,7.22s.15,7.22,.33,7.22,.33-3.23,.33-7.22-.15-7.22-.33-7.22Z"/>
      <path class="cls-16" d="M121.17,516.9c-.18,0-.33,3.23-.33,7.22s.15,7.22,.33,7.22,.33-3.23,.33-7.22-.15-7.22-.33-7.22Z"/>
      <path class="cls-16" d="M114.18,516.9c-.18,0-.33,3.23-.33,7.22s.15,7.22,.33,7.22,.33-3.23,.33-7.22-.15-7.22-.33-7.22Z"/>
      <path class="cls-16" d="M107.18,516.9c-.18,0-.33,3.23-.33,7.22s.15,7.22,.33,7.22,.33-3.23,.33-7.22-.15-7.22-.33-7.22Z"/>
      <path class="cls-16" d="M100.19,516.9c-.18,0-.33,3.23-.33,7.22s.15,7.22,.33,7.22,.33-3.23,.33-7.22-.15-7.22-.33-7.22Z"/>
      <path class="cls-16" d="M93.19,516.9c-.18,0-.33,3.23-.33,7.22s.15,7.22,.33,7.22,.33-3.23,.33-7.22-.15-7.22-.33-7.22Z"/>
      <path class="cls-16" d="M86.2,516.9c-.18,0-.33,3.23-.33,7.22s.15,7.22,.33,7.22,.33-3.23,.33-7.22-.15-7.22-.33-7.22Z"/>
      <path class="cls-16" d="M79.2,516.9c-.18,0-.33,3.23-.33,7.22s.15,7.22,.33,7.22,.33-3.23,.33-7.22-.15-7.22-.33-7.22Z"/>
      <g class="cls-10">
        <path d="M153.01,516.67c-23.96,4.16-50.38,4.3-74.29,.02l74.29-.02Z"/>
      </g>
      <path class="cls-16" d="M77.48,516.7c0,.18,17.15,.33,38.3,.33s38.31-.15,38.31-.33-17.15-.33-38.31-.33-38.3,.15-38.3,.33Z"/>
    </g>
    <path class="cls-16" d="M154.25,531.54s-.02-.09-.02-.25c0-.19-.01-.44-.02-.75-.01-.69-.02-1.66-.04-2.9-.02-2.56-.04-6.22-.08-10.78v-.17s.17,0,.17,0c1.33,0,2.75-.01,4.23-.02l-.18,.18c-.01-4.35-.03-9.38-.04-14.89l.23,.23c-1.55,0-3.22,0-4.93,0h-.24s0-.24,0-.24c0-4.6,0-9.59-.01-14.77v-.25s.25,0,.25,0c1.63,0,3.37,0,5.13,0,1.3,0,2.59,0,3.86,0l-.25,.25c0-5.51,0-10.8,.01-15.76l.24,.24c-2.52,0-4.95,0-7.29-.01h-.22s0-.22,0-.22c.02-5.39,.03-10.25,.05-14.43v-.18s.18,0,.18,0c.68,0,1.29,0,1.88,0l-.17,.17c-.02-4.79-.03-8.64-.04-11.33,0-1.3,.01-2.32,.01-3.04,0-.32,.01-.58,.02-.79,0-.18,.01-.27,.02-.27,0,0,.02,.09,.03,.27,0,.2,.02,.46,.03,.79,.02,.73,.04,1.74,.08,3.04,.05,2.69,.11,6.53,.19,11.33v.17s-.17,0-.17,0c-.59,0-1.2,0-1.88,0l.18-.18c.01,4.19,.03,9.05,.05,14.43l-.22-.22c2.33,0,4.76,0,7.29-.01h.24s0,.24,0,.24c0,4.96,0,10.25,.01,15.76v.25s-.25,0-.25,0c-1.27,0-2.56,0-3.86,0-1.76,0-3.5,0-5.13,0l.25-.25c0,5.18,0,10.17-.01,14.77l-.24-.24c1.71,0,3.38,0,4.93,0h.23s0,.23,0,.23c-.02,5.51-.03,10.54-.04,14.89v.19s-.18,0-.18,0c-1.48,0-2.9-.01-4.23-.02l.17-.17c-.03,4.56-.06,8.22-.08,10.78-.02,1.24-.03,2.2-.04,2.9,0,.31-.02,.55-.02,.75,0,.17-.02,.25-.02,.25Z"/>
  </g>
  <g>
    <g>
      <g>
        <g>
          <path class="cls-9" d="M597.48,527.54H175.48c-13.95,0-25.26-11.31-25.26-25.26V212.66c0-10.18,8.25-18.42,18.42-18.42h436.68c9.62,0,17.41,7.79,17.41,17.41V502.28c0,13.95-11.31,25.26-25.26,25.26Z"/>
          <path class="cls-16" d="M597.48,527.54s.34-.03,1.02-.07c.34-.02,.76-.04,1.27-.07,.51-.02,1.08-.15,1.75-.24,.33-.05,.68-.11,1.06-.17,.36-.09,.75-.19,1.15-.3,.4-.11,.83-.22,1.27-.33,.43-.16,.88-.32,1.34-.5,.95-.3,1.9-.82,2.94-1.31,.51-.26,1.01-.6,1.54-.91,.26-.16,.53-.33,.8-.49,.25-.19,.51-.38,.77-.58,2.1-1.54,4.24-3.61,6.04-6.3,1.79-2.68,3.23-5.99,3.85-9.77,.07-.47,.14-.95,.22-1.43,.07-.48,.06-.98,.1-1.47,.07-.99,.07-2,.06-3.03,0-2.06,0-4.2,0-6.41,0-4.42,0-9.12-.01-14.1-.02-39.84-.05-97.49-.08-168.72,0-17.81-.01-36.47-.02-55.91,0-9.72,0-19.64,0-29.74,0-2.53,0-5.06,0-7.61,0-1.27,0-2.55,0-3.83,0-1.28,.03-2.57-.06-3.83-.29-5.09-3.11-9.97-7.36-12.92-2.12-1.49-4.6-2.45-7.17-2.84-.32-.04-.64-.11-.97-.14l-.98-.05c-.65-.05-1.32-.03-1.98-.03-1.33,0-2.65,0-3.98,0-5.32,0-10.69,0-16.1,0-10.82,0-21.81,0-32.97,0-22.31,0-45.27,0-68.81,.01-94.18,0-197.73,.01-306.41,.02h-5.09c-.84,.01-1.7-.03-2.54,.03l-1.25,.06c-.41,.05-.83,.12-1.24,.18-.42,.05-.82,.13-1.23,.25-.4,.11-.81,.2-1.21,.32-.78,.3-1.58,.53-2.32,.93-1.52,.69-2.91,1.65-4.16,2.73-1.28,1.07-2.33,2.38-3.27,3.75-.92,1.39-1.59,2.92-2.13,4.49-.44,1.6-.79,3.23-.8,4.89-.05,1.66-.01,3.35-.03,5.03,0,13.42,0,26.75,0,39.99,0,26.47,0,52.55,0,78.18,0,51.26-.01,100.7-.02,147.8,0,5.89,0,11.74,0,17.55-.02,1.46,.05,2.89,.15,4.32l.32,2.13c.14,.7,.35,1.39,.51,2.08,.8,2.75,2.06,5.34,3.72,7.65,3.27,4.66,8.22,8.01,13.61,9.52,.68,.16,1.35,.39,2.04,.49l2.07,.32c1.39,.08,2.78,.16,4.19,.14,2.81,0,5.61,0,8.4,0,22.31,0,43.97,0,64.91,.01,41.88,.01,80.9,.02,116.52,.03,71.23,.04,128.87,.06,168.71,.08,19.92,.02,35.38,.04,45.87,.05,5.24,.01,9.24,.02,11.93,.03,2.69,0,4.06,.03,4.06,.03,0,0-1.38,.02-4.06,.03-2.69,0-6.69,.01-11.93,.03-10.49,.01-25.95,.03-45.87,.05-39.84,.02-97.48,.05-168.71,.08-35.62,0-74.63,.02-116.52,.03-20.94,0-42.6,0-64.91,.01-2.79,0-5.59,0-8.4,0-1.4,.03-2.82-.06-4.24-.14l-2.11-.32c-.71-.1-1.39-.33-2.08-.49-5.49-1.53-10.53-4.94-13.86-9.69-1.68-2.35-2.97-5-3.79-7.8-.17-.71-.38-1.41-.52-2.12l-.33-2.17c-.11-1.46-.18-2.93-.16-4.37,0-5.81,0-11.66,0-17.55,0-47.1,0-96.54-.02-147.8,0-25.63,0-51.71,0-78.18,0-13.24,0-26.57,0-39.99,.01-1.68-.03-3.35,.03-5.04,0-1.71,.37-3.39,.82-5.03,.55-1.61,1.24-3.19,2.19-4.62,.96-1.4,2.04-2.76,3.36-3.86,1.29-1.12,2.72-2.1,4.28-2.81,.76-.41,1.58-.65,2.39-.96,.41-.12,.83-.22,1.24-.33,.41-.12,.83-.2,1.26-.26,.42-.06,.85-.14,1.27-.19l1.29-.07c.86-.06,1.7-.02,2.55-.03h5.09c108.68,0,212.23,.01,306.41,.02,23.55,0,46.51,0,68.81,.01,11.15,0,22.15,0,32.97,0,5.41,0,10.78,0,16.1,0,1.33,0,2.66,0,3.98,0,.66,0,1.32-.01,1.99,.03l1,.05c.33,.03,.66,.09,.99,.14,2.64,.41,5.19,1.39,7.35,2.92,4.35,3.02,7.24,8.02,7.53,13.24,.09,1.31,.05,2.58,.06,3.86,0,1.28,0,2.56,0,3.83,0,2.55,0,5.09,0,7.61,0,10.1,0,20.02,0,29.74,0,19.44-.01,38.1-.02,55.91-.04,71.23-.06,128.88-.08,168.72,0,4.98,0,9.68-.01,14.1,0,2.21,0,4.34,0,6.41,0,1.03,0,2.05-.07,3.04-.04,.5-.03,.99-.1,1.48-.07,.48-.15,.96-.22,1.44-.64,3.8-2.09,7.12-3.9,9.81-1.81,2.7-3.97,4.76-6.09,6.31-.26,.2-.52,.39-.78,.58-.27,.17-.54,.33-.8,.49-.53,.31-1.03,.65-1.55,.91-1.05,.49-2,1.01-2.95,1.3-.47,.17-.92,.33-1.35,.49-.44,.11-.87,.22-1.27,.33-.41,.1-.79,.2-1.16,.29-.37,.06-.73,.11-1.06,.16-.67,.09-1.25,.22-1.75,.23-.51,.02-.93,.04-1.27,.06-.68,.03-1.02,.04-1.02,.04Z"/>
        </g>
        <g>
          <path class="cls-9" d="M622.24,532.62H154.88c-13.49,0-24.42-10.93-24.42-24.42v-3.81c0-.52,.42-.94,.94-.94h510.05c.52,0,.94,.42,.94,.94v8.07c0,11.13-9.02,20.15-20.15,20.15Z"/>
          <path class="cls-16" d="M622.24,532.62s.23-.02,.69-.05c.46-.05,1.15,0,2.04-.18,1.78-.23,4.49-.82,7.52-2.65,1.53-.87,3.09-2.13,4.56-3.73,1.46-1.6,2.82-3.6,3.79-5.99,.98-2.39,1.5-5.16,1.47-8.13,0-1.49,0-3.03,0-4.61,0-.79,0-1.6,0-2.41,0-.41,.04-.82-.27-1.08-.27-.29-.69-.22-1.12-.23-26.88,.02-65.77,.05-113.83,.08-96.12,.02-228.89,.05-375.53,.08-4.58,0-9.15,0-13.71,0h-3.41s-1.71,0-1.71,0h-1.28c-.13,0-.21,.01-.31,.05-.19,.08-.34,.25-.39,.45-.04,.16-.02,.52-.02,.78v1.7c-.02,1.14,.03,2.26,.09,3.38,.19,2.23,.62,4.45,1.44,6.52,.34,1.07,.89,2.04,1.35,3.05,.59,.94,1.1,1.94,1.8,2.81,2.6,3.61,6.26,6.4,10.33,8.1,2.05,.83,4.2,1.36,6.39,1.63,2.18,.21,4.41,.17,6.62,.17,4.43,0,8.84,0,13.24,0,8.79,0,17.51,0,26.16,0,34.58,0,67.93,.01,99.71,.02,63.55,.02,120.77,.04,168.83,.06,48.05,.04,86.94,.06,113.82,.08,13.43,.02,23.87,.04,30.94,.05,3.53,.01,6.23,.02,8.05,.03,1.81,0,2.74,.03,2.74,.03,0,0-.93,.02-2.74,.03-1.82,0-4.51,.01-8.05,.03-7.08,.01-17.51,.03-30.94,.05-26.88,.02-65.77,.05-113.82,.08-48.06,.02-105.28,.03-168.83,.06-31.77,0-65.13,0-99.71,.02-8.64,0-17.37,0-26.16,0-4.4,0-8.81,0-13.24,0-2.21,0-4.44,.05-6.68-.17-2.23-.27-4.43-.82-6.52-1.67-4.16-1.73-7.89-4.58-10.56-8.27-.72-.88-1.24-1.9-1.84-2.87-.48-1.03-1.04-2.03-1.39-3.12-.84-2.12-1.27-4.39-1.47-6.67-.07-1.14-.12-2.29-.1-3.42v-1.7c.02-.3-.04-.52,.04-.92,.09-.35,.35-.65,.69-.8,.16-.07,.36-.1,.52-.1h2.98s3.41,0,3.41,0c4.56,0,9.13,0,13.71,0,146.64,.03,279.41,.06,375.53,.08,48.05,.04,86.94,.06,113.83,.08h.64c.23,.03,.45,.12,.62,.28,.17,.16,.28,.37,.32,.59,.03,.24,0,.42,.01,.63,0,.82,0,1.62,0,2.41,0,1.59,0,3.12,0,4.61,.03,2.99-.51,5.79-1.5,8.19-.98,2.41-2.36,4.42-3.84,6.02-1.49,1.61-3.06,2.86-4.6,3.73-3.06,1.82-5.78,2.4-7.57,2.61-.89,.17-1.59,.12-2.04,.16-.46,.02-.69,.02-.69,.02Z"/>
        </g>
        <g>
          <rect class="cls-13" x="169.59" y="214.58" width="432.46" height="273.03" rx="5.26" ry="5.26"/>
          <path class="cls-16" d="M596.79,487.61s.31,.01,.9-.1c.59-.11,1.49-.37,2.42-1.12,.91-.74,1.83-2.08,1.89-3.86,0-1.77,0-3.83,0-6.16-.01-9.34-.03-23.11-.05-40.85-.02-35.48-.05-86.8-.08-150.23,0-15.86-.01-32.47-.02-49.78,0-4.33,0-8.7,0-13.11v-1.66c0-.56,.02-1.11-.06-1.63-.13-1.06-.65-2.05-1.4-2.82-.76-.76-1.75-1.29-2.81-1.44-.52-.09-1.08-.06-1.64-.07h-1.68c-9,0-18.16,0-27.48,0-37.29,0-77.13,.02-119.06,.02-83.86,0-176.05,.01-272.82,.02-1.45-.02-2.86,.64-3.8,1.73-.47,.54-.83,1.18-1.02,1.87-.21,.69-.21,1.4-.2,2.17,0,3.02,0,6.03,0,9.03,0,6.01,0,12.01,0,17.98,0,11.95,0,23.82,0,35.6,0,23.57,0,46.79,0,69.61,0,22.82,0,45.23,0,67.18,0,10.98,0,21.84,0,32.57,0,5.37,0,10.71,0,16.01,0,2.65,0,5.3,0,7.94,0,1.32,0,2.64,0,3.95,.03,1.32-.14,2.64,.39,3.79,.48,1.16,1.41,2.11,2.55,2.63,.57,.26,1.18,.41,1.8,.44,.63,.03,1.3,0,1.94,.01,2.6,0,5.2,0,7.79,0,5.18,0,10.32,0,15.43,0,10.22,0,20.29,0,30.23,0,19.87,0,39.15,0,57.8,.01,37.29,.01,72.03,.02,103.74,.03,63.42,.04,114.75,.06,150.22,.08,17.73,.02,31.5,.04,40.84,.05,4.67,.01,8.22,.02,10.62,.03,2.39,0,3.62,.03,3.62,.03,0,0-1.23,.02-3.62,.03-2.4,0-5.96,.01-10.62,.03-9.34,.01-23.11,.03-40.84,.05-35.47,.02-86.79,.05-150.22,.08-31.71,0-66.45,.02-103.74,.03-18.65,0-37.93,0-57.8,.01-9.93,0-20.01,0-30.23,0-5.11,0-10.25,0-15.43,0-2.59,0-5.18,0-7.79,0-.66,0-1.29,.02-1.97-.01-.68-.04-1.35-.2-1.98-.48-1.25-.56-2.26-1.61-2.79-2.88-.27-.63-.41-1.32-.42-2v-1.98c0-1.31,0-2.63,0-3.95,0-2.64,0-5.28,0-7.94,0-5.31,0-10.64,0-16.01,0-10.74,0-21.6,0-32.57,0-21.95,0-44.37,0-67.18,0-22.82,0-46.04,0-69.61,0-11.78,0-23.65,0-35.6,0-5.97,0-11.97,0-17.98,0-3.01,0-6.02,0-9.03,0-.74-.01-1.56,.22-2.32,.22-.76,.61-1.47,1.13-2.07,1.03-1.2,2.61-1.93,4.2-1.91,96.77,0,188.96,.01,272.82,.02,41.93,0,81.77,.02,119.06,.02,9.32,0,18.49,0,27.48,0h1.68c.55,0,1.13-.03,1.71,.07,1.15,.17,2.23,.74,3.04,1.56,.8,.83,1.36,1.91,1.51,3.05,.08,.58,.06,1.14,.06,1.69v1.66c0,4.41,0,8.78,0,13.11,0,17.31-.01,33.92-.02,49.78-.04,63.42-.06,114.75-.08,150.23-.02,17.73-.04,31.5-.05,40.85,0,2.33-.02,4.39-.02,6.17-.06,1.81-1.01,3.16-1.93,3.9-.95,.76-1.86,1.01-2.45,1.11-.3,.05-.53,.06-.68,.07-.15,0-.23,0-.23,0Z"/>
        </g>
        <polygon class="cls-16" points="339.9 502.89 346.25 513.67 435.64 513.67 441.54 502.89 339.9 502.89"/>
      </g>
      <path class="cls-16" d="M389.97,205.34c0,1.96-1.59,3.54-3.55,3.54s-3.54-1.59-3.54-3.54,1.59-3.55,3.54-3.55,3.55,1.59,3.55,3.55Z"/>
    </g>
    <g>
      <path class="cls-16" d="M577.67,238.89h-16.56c-.65,0-1.19-.53-1.19-1.19v-8.23c0-.66,.53-1.19,1.18-1.19h16.58c.08,0,.16,.03,.22,.09,.06,.06,.09,.13,.09,.21v2.71h1.77c.17,0,.3,.14,.3,.3v3.97c0,.17-.14,.3-.3,.3h-1.77v2.71c0,.17-.13,.3-.3,.3Zm-.3-10h-16.27c-.32,0-.57,.26-.57,.58v8.23c0,.32,.26,.58,.58,.58h16.26v-2.71c0-.17,.14-.3,.3-.3h1.77v-3.36h-1.77c-.17,0-.3-.14-.3-.3v-2.71Z"/>
      <path class="cls-16" d="M561.88,235.93v-4.67c0-.56,.45-1.01,1.01-1.01h7.79c.56,0,1.01,.45,1.01,1.01v4.67c0,.56-.45,1.01-1.01,1.01h-7.79c-.56,0-1.01-.45-1.01-1.01Z"/>
    </g>
  </g>
  <g>
    <rect class="cls-1" x="585.17" y="113.87" width="127.94" height="64.03" rx="6.62" ry="6.62"/>
    <g>
      <path class="cls-5" d="M585.17,163.02h127.94v144.46c0,3.99-3.24,7.23-7.23,7.23h-113.48c-3.99,0-7.23-3.24-7.23-7.23V163.02h0Z"/>
      <rect class="cls-9" x="585.17" y="162.75" width="96.29" height="31.68"/>
      <path class="cls-14" d="M706.2,314.77c5.82,0,7.23-3.27,7.23-7.74l-.32-144h-31.3v151.69l24.4,.06Z"/>
      <path class="cls-16" d="M713.11,194.7c0,.13-28.95,.23-64.65,.23s-64.65-.1-64.65-.23,28.94-.23,64.65-.23,64.65,.1,64.65,.23Z"/>
      <path class="cls-16" d="M713.11,225.53c0,.13-28.95,.23-64.65,.23s-64.65-.1-64.65-.23,28.94-.23,64.65-.23,64.65,.1,64.65,.23Z"/>
      <path class="cls-16" d="M713.11,258.16c0,.13-28.95,.23-64.65,.23s-64.65-.1-64.65-.23,28.94-.23,64.65-.23,64.65,.1,64.65,.23Z"/>
      <path class="cls-16" d="M713.11,288.98c0,.13-28.95,.23-64.65,.23s-64.65-.1-64.65-.23,28.94-.23,64.65-.23,64.65,.1,64.65,.23Z"/>
      <path class="cls-16" d="M612.98,288.98c-.13,0-.23-28.1-.23-62.76s.1-62.76,.23-62.76,.23,28.1,.23,62.76-.1,62.76-.23,62.76Z"/>
      <path class="cls-16" d="M649.14,314.77c-.15,0-.26-33.87-.26-75.65s.12-75.66,.26-75.66,.26,33.87,.26,75.66-.12,75.65-.26,75.65Z"/>
      <path class="cls-16" d="M681.8,314.71c-.15,0-.26-33.86-.26-75.62s.12-75.63,.26-75.63,.26,33.85,.26,75.63-.12,75.62-.26,75.62Z"/>
      <path class="cls-16" d="M602.67,205.92v1.03l-4.28,9.55h-1.6l4.19-9.26h-4.84v1.89h-1.45v-3.2h7.98Z"/>
      <path class="cls-16" d="M635.36,213.5c0,1.92-1.63,3.11-4.22,3.11s-4.19-1.19-4.19-3.11c0-1.21,.67-2.1,1.86-2.55-.97-.45-1.48-1.24-1.48-2.28,0-1.77,1.53-2.87,3.81-2.87s3.84,1.1,3.84,2.87c0,1.04-.53,1.83-1.5,2.28,1.21,.47,1.87,1.34,1.87,2.55Zm-1.51-.05c0-1.16-1.03-1.89-2.71-1.89s-2.67,.72-2.67,1.89,1,1.93,2.67,1.93,2.71-.74,2.71-1.93Zm-5.02-4.73c0,1.04,.86,1.69,2.31,1.69s2.36-.65,2.36-1.69-.94-1.71-2.36-1.71-2.31,.65-2.31,1.71Z"/>
      <path class="cls-16" d="M668.75,210.2c0,3.61-2.04,5.55-5,5.55-1,0-1.95-.2-2.63-.62l.57-1.18c.56,.36,1.27,.5,2.04,.5,2.15,0,3.51-1.35,3.51-3.99v-.38c-.62,.92-1.74,1.39-3.05,1.39-2.1,0-3.61-1.25-3.61-3.2s1.63-3.34,3.73-3.34c2.84,0,4.44,1.9,4.44,5.27Zm-1.86-2.01c0-1.09-.88-2.04-2.52-2.04-1.38,0-2.33,.8-2.33,2.06s.92,2.04,2.4,2.04,2.45-.89,2.45-2.06Z"/>
      <path class="cls-16" d="M660.01,176.13c0-1.52,.93-2.49,2.25-2.49s2.23,.96,2.23,2.49-.92,2.49-2.23,2.49-2.25-.97-2.25-2.49Zm3.19,0c0-.97-.37-1.43-.94-1.43s-.94,.48-.94,1.43,.39,1.43,.94,1.43,.94-.47,.94-1.43Zm4.44-2.39h1.54l-6.17,9.04h-1.54l6.17-9.04Zm-1.49,6.65c0-1.52,.93-2.49,2.23-2.49s2.25,.97,2.25,2.49-.93,2.49-2.25,2.49-2.23-.97-2.23-2.49Zm3.18,0c0-.96-.37-1.43-.94-1.43s-.94,.47-.94,1.43,.39,1.43,.94,1.43,.94-.48,.94-1.43Z"/>
      <path class="cls-16" d="M594.54,179.11c0-2.69,2.05-4.65,4.82-4.65,1.4,0,2.62,.48,3.45,1.42l-.84,.82c-.7-.74-1.56-1.08-2.56-1.08-2.05,0-3.57,1.48-3.57,3.49s1.52,3.49,3.57,3.49c1,0,1.86-.35,2.56-1.09l.84,.82c-.83,.93-2.05,1.43-3.47,1.43-2.75,0-4.8-1.96-4.8-4.65Z"/>
      <path class="cls-16" d="M603.35,245.78h-2.01v2.6h-1.47v-2.6h-5.88v-1.06l5.41-6.92h1.63l-5.18,6.68h4.07v-2.3h1.42v2.3h2.01v1.3Z"/>
      <path class="cls-16" d="M635.1,245.2c0,1.83-1.3,3.29-4,3.29-1.5,0-2.98-.48-3.88-1.28l.7-1.19c.71,.67,1.89,1.13,3.17,1.13,1.6,0,2.51-.74,2.51-1.89s-.76-1.93-3.2-1.93h-2.4l.56-5.53h5.97v1.31h-4.7l-.29,2.9h1.18c3.16,0,4.4,1.31,4.4,3.19Z"/>
      <path class="cls-16" d="M669.06,244.29c0,2.04-1.65,3.34-3.75,3.34-2.84,0-4.44-1.9-4.44-5.27,0-3.61,2.04-5.55,5-5.55,1,0,1.95,.2,2.63,.62l-.57,1.18c-.54-.36-1.27-.5-2.02-.5-2.15,0-3.52,1.34-3.52,3.99,0,.12,0,.24,.01,.38,.6-.91,1.72-1.39,3.04-1.39,2.1,0,3.63,1.25,3.63,3.2Zm-1.47,.06c0-1.24-.94-2.04-2.42-2.04s-2.43,.89-2.43,2.05c0,1.09,.88,2.04,2.51,2.04,1.38,0,2.34-.8,2.34-2.06Z"/>
      <path class="cls-16" d="M600.62,269.07v10.58h-1.5v-9.26h-2.39v-1.31h3.88Z"/>
      <path class="cls-16" d="M635.13,278.33v1.31h-7.6v-1.03l4.31-4.16c1.12-1.09,1.33-1.75,1.33-2.42,0-1.09-.77-1.75-2.25-1.75-1.13,0-2.05,.36-2.7,1.15l-1.03-.89c.82-1.01,2.22-1.6,3.87-1.6,2.21,0,3.63,1.13,3.63,2.95,0,1.03-.3,1.95-1.74,3.32l-3.23,3.11h5.42Z"/>
      <path class="cls-16" d="M668.11,275.66c0,1.78-1.31,3.23-4,3.23-1.51,0-2.99-.48-3.88-1.28l.7-1.19c.71,.67,1.89,1.13,3.19,1.13,1.59,0,2.49-.72,2.49-1.87s-.8-1.84-2.61-1.84h-.85v-1.06l2.66-3.26h-5.09v-1.31h6.98v1.03l-2.77,3.41c2.12,.2,3.19,1.39,3.19,3.02Z"/>
      <path class="cls-16" d="M614.95,302.96c0-3.44,1.84-5.41,4.32-5.41s4.31,1.96,4.31,5.41-1.84,5.41-4.31,5.41-4.32-1.97-4.32-5.41Zm7.12,0c0-2.7-1.15-4.06-2.8-4.06s-2.81,1.36-2.81,4.06,1.15,4.07,2.81,4.07,2.8-1.36,2.8-4.07Z"/>
      <path class="cls-16" d="M665.82,301.4c0,.3-.06,.53-.26,1.09l-.71,2.1h-.95l.56-2.25c-.38-.14-.63-.48-.63-.94,0-.6,.44-1.03,1.01-1.03s.98,.44,.98,1.03Z"/>
      <rect class="cls-16" x="692.3" y="299.15" width="10.32" height="1.09"/>
      <rect class="cls-16" x="692.3" y="302.42" width="10.32" height="1.09"/>
      <g>
        <g>
          <rect class="cls-16" x="693.59" y="273.38" width="7.73" height=".81"/>
          <path class="cls-16" d="M701.72,274.59h-8.52v-1.61h8.52v1.61Zm-7.73-.8l6.93-.02-6.93,.02Z"/>
        </g>
        <g>
          <rect class="cls-16" x="693.59" y="273.38" width="7.73" height=".81" transform="translate(423.67 971.24) rotate(-90)"/>
          <path class="cls-16" d="M698.26,278.05h-1.61v-8.52h1.61v8.52Zm-.81-.8h.02l-.02-6.93v6.93Z"/>
        </g>
      </g>
      <polygon class="cls-16" points="701.04 208.18 699.9 207.04 697.46 209.49 695.01 207.04 693.87 208.18 696.32 210.62 693.87 213.07 695.01 214.2 697.46 211.76 699.9 214.2 701.04 213.07 698.59 210.62 701.04 208.18"/>
      <g>
        <rect class="cls-16" x="693.59" y="242.79" width="7.73" height=".81"/>
        <path class="cls-16" d="M701.72,244h-8.52v-1.61h8.52v1.61Zm-7.73-.8l6.93-.02-6.93,.02Z"/>
      </g>
      <g>
        <rect class="cls-16" x="693.59" y="179.23" width="7.73" height=".81"/>
        <path class="cls-16" d="M701.72,180.44h-8.52v-1.61h8.52v1.61Zm-7.73-.8l6.93-.02-6.93,.02Z"/>
      </g>
      <path class="cls-16" d="M698.75,175.39c0,.72-.58,1.3-1.3,1.3s-1.3-.58-1.3-1.3,.58-1.3,1.3-1.3,1.3,.58,1.3,1.3Z"/>
      <path class="cls-16" d="M698.75,183.65c0,.72-.58,1.3-1.3,1.3s-1.3-.58-1.3-1.3,.58-1.3,1.3-1.3,1.3,.58,1.3,1.3Z"/>
      <g>
        <polygon class="cls-16" points="635.25 177.38 634.56 176.69 633.08 178.18 631.6 176.69 630.91 177.38 632.39 178.86 630.91 180.35 631.6 181.04 633.08 179.55 634.56 181.04 635.25 180.35 633.77 178.86 635.25 177.38"/>
        <path class="cls-16" d="M637.05,183.05h-7.41c-.36,0-.71-.16-.96-.43l-2.61-2.83c-.48-.52-.48-1.33,0-1.85l2.61-2.83c.25-.27,.6-.43,.96-.43h7.41c.73,0,1.32,.61,1.32,1.35v5.66c0,.75-.59,1.35-1.32,1.35Zm-7.41-7.47c-.11,0-.22,.05-.3,.14l-2.61,2.83c-.16,.17-.16,.46,0,.63l2.61,2.83c.08,.09,.19,.14,.3,.14h7.41c.23,0,.42-.2,.42-.45v-5.66c0-.25-.19-.45-.42-.45h-7.41Z"/>
      </g>
      <g>
        <path class="cls-16" d="M649,130.55v18.8h-1.37v-17.57h-4.59v-1.24h5.96Z"/>
        <path class="cls-16" d="M666.68,130.55v.97l-8.09,17.84h-1.5l8.01-17.57h-10.56v3.6h-1.34v-4.84h13.49Z"/>
        <path class="cls-16" d="M681.21,144.06c0,3.12-2.26,5.43-6.58,5.43-2.77,0-5.32-1.02-6.64-2.52l.7-1.05c1.15,1.32,3.36,2.31,5.94,2.31,3.38,0,5.18-1.61,5.18-4.16s-1.72-4.16-5.48-4.16h-1.18v-.99l5.56-7.12h-10.02v-1.24h11.79v.97l-5.64,7.23c4.27,.11,6.37,2.26,6.37,5.32Z"/>
        <path class="cls-16" d="M698.24,144.2c0,3.28-2.71,5.29-7.15,5.29s-7.09-2.02-7.09-5.29c0-2.36,1.45-4,4-4.67-2.15-.7-3.33-2.18-3.33-4.24,0-3.01,2.52-4.86,6.42-4.86s6.47,1.85,6.47,4.86c0,2.07-1.21,3.55-3.38,4.24,2.58,.67,4.06,2.34,4.06,4.67Zm-1.37,0c0-2.5-2.15-4.08-5.78-4.08s-5.72,1.58-5.72,4.08,2.1,4.11,5.72,4.11,5.78-1.58,5.78-4.11Zm-5.78-5.21c3.2,0,5.1-1.42,5.1-3.65s-1.99-3.73-5.1-3.73-5.05,1.42-5.05,3.71,1.85,3.68,5.05,3.68Z"/>
      </g>
    </g>
    <circle class="cls-9" cx="594.54" cy="123" r="3.15"/>
    <circle class="cls-9" cx="605.16" cy="123" r="3.15"/>
    <path class="cls-9" d="M618.94,123c0,1.74-1.41,3.15-3.15,3.15s-3.15-1.41-3.15-3.15,1.41-3.15,3.15-3.15,3.15,1.41,3.15,3.15Z"/>
    <path class="cls-16" d="M706.29,314.77s.14-.02,.42-.04c.28-.01,.69-.07,1.23-.19,1.04-.26,2.67-.9,3.98-2.62,.64-.85,1.18-1.96,1.36-3.26,.1-.65,.08-1.34,.08-2.07,0-.73,0-1.48,0-2.27,0-3.15-.02-6.78-.03-10.86-.02-16.35-.05-40.01-.09-69.23-.02-29.23-.04-64.03-.06-102.67,.14-2.36-.91-4.75-2.86-6.12-.95-.71-2.1-1.12-3.27-1.26-1.17-.09-2.45-.02-3.67-.04-4.95,0-9.95,0-15.01,0-10.11,0-20.44,0-30.95,0-21.03,0-42.8,0-65.09,0-2.7-.04-5.3,1.69-6.33,4.16-.25,.62-.43,1.26-.51,1.92-.06,.65-.05,1.35-.05,2.04,0,1.38,0,2.76,0,4.14,0,5.51,0,10.98,0,16.41,0,10.86,0,21.56,0,32.08,0,21.03-.01,41.32-.02,60.64,0,19.32-.02,37.69-.03,54.87,0,4.3,0,8.52,0,12.67,0,1.04,0,2.07,0,3.09,.01,1.03-.06,2.05,.18,3,.43,1.93,1.73,3.61,3.43,4.54,.85,.46,1.79,.74,2.75,.82,.95,.06,1.96,.02,2.93,.03,1.95,0,3.89,0,5.8,0,3.82,0,7.56,0,11.22,0,29.22,.04,52.87,.07,69.23,.09,8.17,.02,14.51,.04,18.82,.05,2.15,.01,3.78,.02,4.89,.03,1.1,0,1.67,.03,1.67,.03,0,0-.56,.02-1.67,.03-1.11,0-2.75,.02-4.89,.03-4.31,.01-10.65,.03-18.82,.05-16.35,.02-40,.05-69.23,.09-3.65,0-7.39,0-11.22,0-1.91,0-3.85,0-5.8,0-.98-.01-1.94,.03-2.96-.03-1.01-.08-2.01-.37-2.92-.86-1.8-.98-3.18-2.76-3.65-4.81-.26-1.03-.18-2.09-.19-3.1,0-1.03,0-2.06,0-3.09,0-4.15,0-8.37,0-12.67,0-17.19-.02-35.55-.03-54.87,0-19.33-.01-39.61-.02-60.64,0-10.52,0-21.22,0-32.08,0-5.43,0-10.9,0-16.41,0-1.38,0-2.76,0-4.14,0-.69-.02-1.38,.05-2.1,.08-.71,.28-1.41,.55-2.08,1.11-2.68,3.91-4.54,6.83-4.5,22.3,0,44.07,0,65.09,0,10.51,0,20.84,0,30.95,0,5.06,0,10.06,0,15.01,0,1.25,.02,2.44-.05,3.73,.05,1.26,.16,2.5,.6,3.51,1.36,2.1,1.45,3.22,4.08,3.07,6.53-.02,38.64-.04,73.44-.06,102.67-.04,29.22-.07,52.87-.09,69.23,0,4.09-.02,7.72-.03,10.86,0,.79,0,1.54,0,2.27,0,.72,.02,1.43-.09,2.09-.19,1.33-.75,2.46-1.41,3.31-1.34,1.74-3,2.37-4.06,2.61-.54,.12-.96,.16-1.24,.17-.28,0-.42,0-.42,0Z"/>
  </g>
  <g>
    <g>
      <path class="cls-1" d="M59.8,185.62H338.87c5.44,0,9.85,4.42,9.85,9.85v176.13c0,6.48-5.26,11.75-11.75,11.75H62.07c-5.44,0-9.86-4.42-9.86-9.86V193.21c0-4.19,3.4-7.59,7.59-7.59Z"/>
      <rect class="cls-14" x="107.24" y="256.37" width="48.78" height="19.57"/>
      <rect class="cls-14" x="253.59" y="256.37" width="48.78" height="19.57"/>
      <rect class="cls-14" x="253.59" y="295.23" width="48.78" height="19.57"/>
      <rect class="cls-14" x="253.59" y="314.67" width="48.78" height="19.57"/>
      <rect class="cls-14" x="156.02" y="295.58" width="48.78" height="19.57"/>
      <rect class="cls-14" x="204.72" y="315.39" width="48.78" height="19.57"/>
      <rect class="cls-15" x="156.02" y="354.21" width="48.78" height="20.36"/>
      <rect class="cls-14" x="253.59" y="354.48" width="48.78" height="19.57"/>
      <rect class="cls-9" x="76.33" y="237.24" width="263.39" height="19.12"/>
      <g>
        <rect class="cls-9" x="61.06" y="237.24" width="46.18" height="137.74"/>
        <path class="cls-9" d="M107.9,375.65H60.4V236.58h47.51v139.07Zm-46.18-1.33h44.85V237.91H61.73v136.41Z"/>
      </g>
      <path class="cls-9" d="M59.8,185.62H338.87c5.44,0,9.85,4.42,9.85,9.85v12.58H52.21v-14.85c0-4.19,3.4-7.59,7.59-7.59Z"/>
      <rect class="cls-15" x="61.59" y="216.23" width="45.65" height="12.84"/>
      <rect class="cls-15" x="112.59" y="216.23" width="44.03" height="12.84"/>
      <rect class="cls-15" x="160.87" y="216.23" width="44.03" height="12.84"/>
      <rect class="cls-15" x="209.16" y="216.23" width="44.03" height="12.84"/>
      <rect class="cls-15" x="257.44" y="216.23" width="44.03" height="12.84"/>
      <rect class="cls-15" x="305.73" y="216.23" width="36.19" height="12.84"/>
      <path class="cls-16" d="M61.06,374.57s.47-.01,1.36-.02c.9,0,2.23-.01,3.98-.02,3.51,0,8.69-.02,15.4-.04,13.44-.02,33.04-.05,57.72-.09,49.32-.04,118.94-.09,200.19-.16l-.33,.33c0-42.47-.01-88.93-.02-137.31v-.02l.35,.35c-107.65-.03-205.74-.07-278.66-.09l.26-.26c-.06,42.33-.1,76.63-.14,100.36-.03,11.88-.05,21.1-.06,27.38-.01,3.13-.02,5.52-.03,7.14,0,1.61-.03,2.45-.03,2.45,0,0-.02-.8-.03-2.4,0-1.61-.02-3.98-.03-7.09-.01-6.26-.04-15.47-.06-27.32-.03-23.77-.08-58.12-.14-100.52v-.26s.26,0,.26,0c72.92-.02,171-.06,278.66-.09h.35v.37c0,48.38-.01,94.84-.02,137.31v.33h-.33c-81.34-.06-151.04-.12-200.41-.16-24.65-.04-44.22-.07-57.64-.09-6.69-.02-11.84-.03-15.34-.04-1.73,0-3.05-.02-3.94-.02-.88,0-1.32-.02-1.32-.02Z"/>
      <path class="cls-16" d="M340.24,256.37c0,.19-62.38,.35-139.32,.35s-139.33-.15-139.33-.35,62.37-.35,139.33-.35,139.32,.16,139.32,.35Z"/>
      <path class="cls-16" d="M340.24,275.93c0,.19-62.38,.35-139.32,.35s-139.33-.15-139.33-.35,62.37-.35,139.33-.35,139.32,.15,139.32,.35Z"/>
      <path class="cls-16" d="M340.24,295.5c0,.19-62.38,.35-139.32,.35s-139.33-.16-139.33-.35,62.37-.35,139.33-.35,139.32,.15,139.32,.35Z"/>
      <path class="cls-16" d="M340.24,315.07c0,.19-62.38,.35-139.32,.35s-139.33-.15-139.33-.35,62.37-.35,139.33-.35,139.32,.15,139.32,.35Z"/>
      <path class="cls-16" d="M340.24,334.64c0,.19-62.38,.35-139.32,.35s-139.33-.16-139.33-.35,62.37-.35,139.33-.35,139.32,.15,139.32,.35Z"/>
      <path class="cls-16" d="M340.24,354.21c0,.19-62.38,.35-139.32,.35s-139.33-.15-139.33-.35,62.37-.35,139.33-.35,139.32,.16,139.32,.35Z"/>
      <path class="cls-16" d="M107.24,374.98c-.19,0-.35-30.66-.35-68.48s.15-68.49,.35-68.49,.35,30.66,.35,68.49-.15,68.48-.35,68.48Z"/>
      <path class="cls-16" d="M156.02,374.57c-.19,0-.35-30.57-.35-68.28s.16-68.28,.35-68.28,.35,30.57,.35,68.28-.15,68.28-.35,68.28Z"/>
      <path class="cls-16" d="M204.8,374.98c-.19,0-.35-30.66-.35-68.48s.15-68.49,.35-68.49,.35,30.66,.35,68.49-.15,68.48-.35,68.48Z"/>
      <path class="cls-16" d="M253.59,374.98c-.19,0-.35-30.66-.35-68.48s.15-68.49,.35-68.49,.35,30.66,.35,68.49-.16,68.48-.35,68.48Z"/>
      <path class="cls-16" d="M302.37,374.98c-.19,0-.35-30.66-.35-68.48s.15-68.49,.35-68.49,.35,30.66,.35,68.49-.16,68.48-.35,68.48Z"/>
      <path class="cls-1" d="M69.55,196.84c0,1.61-1.27,2.91-2.83,2.91s-2.83-1.3-2.83-2.91,1.27-2.91,2.83-2.91,2.83,1.3,2.83,2.91Z"/>
      <path class="cls-1" d="M79.16,196.84c0,1.61-1.27,2.91-2.83,2.91s-2.83-1.3-2.83-2.91,1.27-2.91,2.83-2.91,2.83,1.3,2.83,2.91Z"/>
      <path class="cls-1" d="M88.77,196.84c0,1.61-1.27,2.91-2.83,2.91s-2.83-1.3-2.83-2.91,1.27-2.91,2.83-2.91,2.83,1.3,2.83,2.91Z"/>
    </g>
    <path class="cls-16" d="M336.37,383.35s.21-.02,.63-.05c.42,0,1.04-.09,1.85-.23,1.59-.35,4.04-1.18,6.32-3.5,1.12-1.15,2.14-2.68,2.79-4.56,.19-.46,.27-.97,.41-1.46,.08-.51,.19-1.03,.22-1.58,.08-1.08,.03-2.22,.04-3.4,0-4.73-.02-10.18-.03-16.32-.02-24.57-.05-60.11-.09-104.03,0-10.98-.01-22.48-.02-34.47-.02-5.99,.02-12.12-.04-18.32-.13-3.06-1.79-6.01-4.35-7.77-1.27-.89-2.77-1.46-4.31-1.68-1.54-.2-3.18-.08-4.78-.11-25.82,0-53.42,.02-82.45,.03-58.07,0-121.92,.01-188.93,.02h-3.14c-1.03,0-2.03,.13-2.98,.48-1.9,.69-3.49,2.16-4.32,3.99-.42,.91-.66,1.91-.7,2.91-.03,1.02,0,2.07-.02,3.1,0,2.08,0,4.15,0,6.22,0,8.28,0,16.5,0,24.66,0,16.32,0,32.4,0,48.21,0,31.6-.01,62.09-.02,91.13,0,1.81,0,3.62,0,5.43-.04,1.8,.14,3.56,.91,5.16,1.42,3.22,4.62,5.49,8.06,5.87,.85,.08,1.73,.07,2.62,.07h2.64c1.76,0,3.51,0,5.25,0,3.49,0,6.95,0,10.39,0,13.76,0,27.11,0,40.03,.01,25.83,.01,49.88,.02,71.84,.03,43.92,.04,79.46,.07,104.03,.09,12.28,.02,21.81,.04,28.28,.05,3.23,.01,5.69,.02,7.36,.03,1.66,0,2.51,.03,2.51,.03,0,0-.85,.02-2.51,.03-1.66,0-4.13,.02-7.36,.03-6.47,.01-16.01,.03-28.28,.05-24.57,.02-60.11,.05-104.03,.09-21.96,.01-46.02,.02-71.84,.03-12.91,0-26.27,0-40.03,.01-3.44,0-6.9,0-10.39,0-1.74,0-3.49,0-5.25,0h-2.64c-.88,0-1.76,.02-2.67-.07-3.61-.39-6.97-2.77-8.46-6.15-.81-1.65-1-3.57-.96-5.36,0-1.8,0-3.61,0-5.43,0-29.04-.01-59.53-.02-91.13,0-15.8,0-31.88,0-48.21,0-8.16,0-16.38,0-24.66,0-2.07,0-4.14,0-6.22,0-1.04-.02-2.07,.02-3.13,.04-1.07,.3-2.14,.75-3.12,.9-1.96,2.6-3.53,4.63-4.27,1.01-.38,2.11-.53,3.17-.52h3.14c67.01,0,130.86,.01,188.93,.02,29.04,0,56.63,.02,82.45,.03,1.62,.03,3.21-.09,4.85,.12,1.61,.24,3.18,.83,4.5,1.76,2.67,1.84,4.4,4.93,4.54,8.12,.06,6.25,.01,12.35,.02,18.35,0,11.99-.01,23.49-.02,34.47-.04,43.92-.07,79.46-.09,104.03,0,6.14-.02,11.6-.03,16.32-.01,1.18,.03,2.32-.06,3.41-.03,.55-.14,1.08-.23,1.59-.15,.5-.23,1.02-.42,1.48-.67,1.9-1.71,3.44-2.84,4.59-2.31,2.32-4.79,3.14-6.39,3.48-.82,.13-1.44,.21-1.86,.21-.42,.02-.63,.02-.63,.02Z"/>
  </g>
  <g>
    <g>
      <g>
        <g>
          <path class="cls-1" d="M298.73,122.56h228.06c4.99,0,9.05,4.06,9.05,9.05V446.56c0,4.62-3.75,8.38-8.38,8.38h-228.69c-4.18,0-7.58-3.4-7.58-7.58V130.1c0-4.16,3.38-7.54,7.54-7.54Z"/>
          <path class="cls-9" d="M298.73,122.56h228.06c4.99,0,9.05,4.06,9.05,9.05v21.24h-244.65v-22.76c0-4.16,3.38-7.54,7.54-7.54Z"/>
          <ellipse class="cls-1" cx="307.71" cy="137.16" rx="4.02" ry="3.82"/>
          <ellipse class="cls-1" cx="321.26" cy="137.16" rx="4.02" ry="3.82"/>
          <path class="cls-1" d="M338.83,137.16c0,2.11-1.8,3.82-4.02,3.82s-4.02-1.71-4.02-3.82,1.8-3.82,4.02-3.82,4.02,1.71,4.02,3.82Z"/>
        </g>
        <g>
          <g>
            <rect class="cls-14" x="327.78" y="206.98" width="9.85" height="72.05"/>
            <rect class="cls-6" x="346.79" y="231.45" width="9.85" height="47.58"/>
            <rect class="cls-14" x="365.81" y="215.94" width="9.85" height="63.46"/>
            <rect class="cls-6" x="384.82" y="209.77" width="9.85" height="69.26"/>
            <rect class="cls-14" x="403.83" y="232.92" width="9.85" height="46.11"/>
            <rect class="cls-6" x="422.85" y="241.96" width="9.85" height="37.07"/>
            <rect class="cls-14" x="441.86" y="214.38" width="9.85" height="64.65"/>
            <rect class="cls-6" x="460.88" y="226.03" width="9.85" height="52.99"/>
            <rect class="cls-14" x="479.89" y="216.72" width="9.85" height="62.31"/>
            <rect class="cls-6" x="498.9" y="236.58" width="9.85" height="42.45"/>
            <g class="cls-10">
              <rect class="cls-1" x="384.82" y="209.77" width="9.85" height="69.26"/>
            </g>
            <g class="cls-10">
              <rect class="cls-1" x="422.85" y="241.96" width="9.85" height="37.07"/>
            </g>
            <g class="cls-10">
              <rect class="cls-1" x="460.88" y="226.03" width="9.85" height="52.99"/>
            </g>
            <g class="cls-10">
              <rect class="cls-1" x="498.9" y="236.58" width="9.85" height="42.45"/>
            </g>
          </g>
          <path class="cls-16" d="M317.61,209.77s.01,.11,.02,.32c0,.23,.01,.55,.02,.96,0,.87,.02,2.11,.04,3.74,.02,3.29,.04,8.08,.07,14.17,.02,12.22,.06,29.62,.1,50.44l-.24-.24c19.11-.01,41.5-.02,65.34-.03,37.27,.03,71.01,.06,95.45,.08,12.2,.04,22.08,.07,28.92,.09,3.4,.02,6.05,.04,7.86,.05,.89,.01,1.57,.02,2.05,.03,.46,0,.7,.03,.7,.03,0,0-.24,.02-.7,.03-.48,0-1.16,.02-2.05,.03-1.82,.01-4.46,.03-7.86,.05-6.85,.02-16.73,.05-28.92,.09-24.44,.02-58.18,.05-95.45,.08-23.83-.01-46.23-.02-65.34-.03h-.24s0-.24,0-.24c.04-20.82,.07-38.22,.1-50.44,.03-6.09,.05-10.88,.07-14.17,.02-1.62,.03-2.87,.04-3.74,0-.41,.01-.73,.02-.96,0-.21,.02-.32,.02-.32Z"/>
        </g>
        <rect class="cls-9" x="318.13" y="182.58" width="58.47" height="6.06" rx="2.56" ry="2.56"/>
        <rect class="cls-9" x="312.65" y="304.48" width="192.31" height="6.06" rx="2.56" ry="2.56"/>
        <rect class="cls-9" x="312.65" y="338.16" width="192.31" height="6.05" rx="2.56" ry="2.56"/>
        <rect class="cls-9" x="312.65" y="321.25" width="104.39" height="6.06" rx="2.56" ry="2.56"/>
        <rect class="cls-9" x="428.48" y="321.25" width="75.22" height="6.06" rx="2.56" ry="2.56"/>
        <rect class="cls-9" x="313.9" y="355.07" width="75.22" height="6.06" rx="2.56" ry="2.56"/>
      </g>
      <path class="cls-16" d="M527.03,454.93c-.01-.06,1.03,.11,2.88-.52,.91-.32,2.01-.88,3.06-1.85,1.05-.96,2.05-2.39,2.52-4.22,.25-.91,.32-1.91,.29-2.97,0-1.06,0-2.18,0-3.35,0-2.34,0-4.9-.01-7.68,0-5.55-.02-11.95-.03-19.16-.02-28.83-.05-70.54-.09-122.09-.01-25.77-.02-54-.03-84.31,0-15.15,0-30.82-.01-46.97,0-8.07,0-16.26,0-24.56v-3.12c0-1.04,.03-2.1-.06-3.1-.23-2.02-1.14-3.97-2.57-5.43-1.44-1.45-3.35-2.47-5.4-2.71-1.01-.13-2.08-.08-3.14-.09h-3.19c-68.15,0-143.07,.01-221.71,.02-2.41-.11-4.77,.94-6.29,2.78-.75,.92-1.28,2-1.55,3.15-.29,1.14-.18,2.36-.2,3.59,0,4.89,0,9.76,0,14.61,0,9.71,0,19.36,0,28.93,0,19.15,0,38.03,0,56.57,0,37.09-.01,72.86-.02,106.94,0,34.08-.02,66.46-.03,96.77,0,3.78-.03,7.56,.02,11.25,.11,1.8,.86,3.56,2.11,4.85,1.24,1.3,2.92,2.16,4.69,2.35,.87,.09,1.8,.05,2.71,.06,.91,0,1.82,0,2.72,0,1.81,0,3.61,0,5.41,0,3.59,0,7.14,0,10.66,0,14.07,0,27.57,.01,40.45,.02,51.54,.04,93.25,.07,122.08,.09,14.41,.02,25.6,.04,33.19,.05,3.79,.01,6.68,.02,8.63,.03,1.94,0,2.94,.03,2.94,.03,0,0-1,.02-2.94,.03-1.95,0-4.84,.02-8.63,.03-7.59,.01-18.78,.03-33.19,.05-28.83,.02-70.54,.05-122.08,.09-12.89,0-26.39,.01-40.45,.02-3.52,0-7.07,0-10.66,0-1.79,0-3.6,0-5.41,0-.91,0-1.81,0-2.72,0-.91,0-1.81,.03-2.76-.06-1.87-.21-3.65-1.12-4.96-2.48-1.32-1.36-2.12-3.22-2.24-5.13-.05-3.75-.02-7.49-.03-11.28,0-30.31-.02-62.69-.03-96.77,0-34.08-.01-69.85-.02-106.94,0-18.54,0-37.42,0-56.57,0-9.58,0-19.22,0-28.93,0-4.86,0-9.73,0-14.61v-1.83c.01-.63,.07-1.26,.21-1.88,.29-1.23,.86-2.4,1.66-3.38,.81-.97,1.85-1.76,3.01-2.28,1.15-.54,2.46-.72,3.7-.7,78.64,0,153.57,.01,221.71,.02h3.19c1.06,.01,2.12-.04,3.21,.1,2.16,.26,4.18,1.33,5.7,2.86,1.51,1.54,2.47,3.6,2.71,5.73,.1,1.08,.05,2.11,.06,3.15v3.12c0,8.3,0,16.49,0,24.56,0,16.14,0,31.81-.01,46.97-.01,30.3-.02,58.53-.03,84.31-.04,51.54-.07,93.25-.09,122.09,0,7.21-.02,13.61-.03,19.16,0,2.77,0,5.33-.01,7.68,0,1.17,0,2.29,0,3.35,.02,1.06-.05,2.08-.3,3-.48,1.85-1.5,3.29-2.57,4.25-1.07,.98-2.18,1.54-3.1,1.85-.92,.31-1.66,.41-2.15,.44-.49,.02-.74,.02-.74,.02Z"/>
    </g>
    <g>
      <path class="cls-9" d="M370.34,408.54c.23,14.09-11.01,25.75-25.04,25.97-14.03,.23-25.63-11.06-25.85-25.15-.23-14.09,11.01-25.75,25.04-25.97,14.03-.23,25.63,11.06,25.85,25.15Zm-37.61,.61c.11,6.74,5.65,12.13,12.36,12.03,6.71-.11,12.08-5.68,11.97-12.42-.11-6.74-5.65-12.13-12.36-12.03-6.71,.11-12.08,5.68-11.97,12.42Z"/>
      <path class="cls-13" d="M370.34,408.54c.23,14.09-11.01,25.75-25.04,25.97l-.21-13.34c6.71-.11,12.08-5.68,11.97-12.42-.11-6.74-5.65-12.13-12.36-12.03l-.21-13.34c14.03-.23,25.63,11.06,25.85,25.15Z"/>
      <path class="cls-14" d="M347.59,436.56c-16.41,.26-29.51-12.47-29.77-28.96l15.53-.25c.13,7.88,6.13,12.85,13.97,12.72l.26,16.49Z"/>
    </g>
    <g>
      <path class="cls-13" d="M388.07,411.41c-.23-14.09,11.01-25.75,25.04-25.97,14.03-.23,25.63,11.06,25.85,25.15,.23,14.09-11.01,25.75-25.04,25.97-14.03,.23-25.63-11.06-25.85-25.15Zm37.61-.61c-.11-6.74-5.65-12.13-12.36-12.03-6.71,.11-12.08,5.68-11.97,12.42,.11,6.74,5.65,12.13,12.36,12.03,6.71-.11,12.08-5.68,11.97-12.42Z"/>
      <path class="cls-14" d="M388.07,411.41c-.23-14.1,11.01-25.75,25.04-25.97l.21,13.34c-6.71,.11-12.08,5.68-11.97,12.42,.11,6.74,5.65,12.13,12.36,12.03l.21,13.34c-14.03,.23-25.63-11.06-25.85-25.15Z"/>
      <path class="cls-9" d="M410.82,383.39c16.41-.26,29.51,12.47,29.77,28.96l-15.53,.25c-.13-7.88-6.13-12.85-13.97-12.72l-.26-16.49Z"/>
    </g>
    <g>
      <path class="cls-13" d="M484.9,383.71c14.09-.23,25.75,11.01,25.97,25.04,.23,14.03-11.06,25.63-25.15,25.85-14.09,.23-25.75-11.01-25.97-25.04-.23-14.03,11.06-25.63,25.15-25.85Zm.61,37.61c6.74-.11,12.13-5.65,12.03-12.36-.11-6.71-5.68-12.08-12.42-11.97-6.74,.11-12.13,5.65-12.03,12.36,.11,6.71,5.68,12.08,12.42,11.97Z"/>
      <path class="cls-2" d="M484.9,383.71c14.09-.23,25.75,11.01,25.97,25.04l-13.34,.21c-.11-6.71-5.68-12.08-12.42-11.97-6.74,.11-12.13,5.65-12.03,12.36l-13.34,.21c-.23-14.03,11.06-25.63,25.15-25.85Z"/>
      <path class="cls-9" d="M512.92,406.47c.26,16.41-12.47,29.51-28.96,29.77l-.25-15.53c7.88-.13,12.85-6.13,12.72-13.97l16.49-.26Z"/>
    </g>
  </g>
  <g class="cls-10">
    <rect class="cls-1" x="346.79" y="231.39" width="9.85" height="47.67"/>
  </g>
  <g>
    <g>
      <g>
        <rect class="cls-3" x="180.71" y="87.84" width="81.53" height="76.62" rx="4.56" ry="4.56"/>
        <path class="cls-16" d="M180.71,92.41s-.04-.27,.05-.8c.08-.52,.3-1.31,.95-2.13,.64-.8,1.79-1.63,3.33-1.71,1.51-.03,3.24-.02,5.19-.04,7.82-.02,19.11-.05,33.05-.09,6.98-.01,14.62-.02,22.82-.03,2.05,0,4.14,0,6.26,0,1.06,0,2.13,0,3.2,0,.54,0,1.08,0,1.62,0,.53,0,1.13,0,1.68,.15,1.12,.28,2.13,.98,2.79,1.95,.33,.48,.57,1.03,.7,1.6,.14,.57,.13,1.18,.13,1.73,0,2.25,0,4.52,0,6.83,0,18.45,.01,38.73,.02,60.02,0,1.41-.65,2.8-1.72,3.71-.53,.46-1.17,.78-1.85,.97-.68,.2-1.39,.18-2.03,.17-2.63,0-5.24,0-7.83,0-5.19,0-10.29,0-15.32,0-10.04,0-19.73-.01-28.95-.02-4.61,0-9.11,0-13.48-.01-2.19-.01-4.32,.02-6.48-.03-1.11-.1-2.17-.6-2.95-1.37-.78-.77-1.27-1.81-1.39-2.88-.05-8.25,0-15.86,0-22.85,.04-13.94,.07-25.23,.09-33.05,.02-3.89,.04-6.91,.05-8.99,.01-1.02,.02-1.79,.03-2.34,0-.53,.03-.8,.03-.8,0,0,.02,.27,.03,.8,0,.54,.02,1.32,.03,2.34,.01,2.07,.03,5.1,.05,8.99,.02,7.82,.05,19.11,.09,33.05,.02,6.97,.04,14.6,.06,22.8,.11,.97,.56,1.9,1.26,2.6,.71,.7,1.66,1.14,2.66,1.23,2.08,.04,4.26,0,6.44,.01,4.37,0,8.87,0,13.48-.01,9.23,0,18.91-.01,28.95-.02,5.02,0,10.13,0,15.32,0,2.59,0,5.2,0,7.83,0,.67,0,1.29,.02,1.89-.15,.6-.16,1.16-.45,1.64-.86,.95-.8,1.53-2.03,1.53-3.29,0-21.29,.01-41.57,.02-60.02,0-2.31,0-4.58,0-6.83,.06-1.13-.13-2.17-.74-3.05-.59-.87-1.5-1.5-2.5-1.76-.51-.13-1.01-.15-1.56-.14-.54,0-1.08,0-1.62,0-1.08,0-2.14,0-3.2,0-2.12,0-4.21,0-6.26,0-8.2-.01-15.85-.02-22.82-.03-13.94-.04-25.23-.07-33.05-.09-1.95,0-3.68,0-5.18-.01-1.49,.06-2.62,.85-3.26,1.61-.65,.79-.88,1.56-.98,2.07-.1,.51-.08,.79-.1,.79Z"/>
      </g>
      <g>
        <path class="cls-16" d="M241.93,153.18c0,.13-9.32,.24-20.81,.24s-20.82-.11-20.82-.24,9.32-.24,20.82-.24,20.81,.11,20.81,.24Z"/>
        <path class="cls-16" d="M232.66,157.01c0,.13-5.17,.24-11.54,.24s-11.55-.11-11.55-.24,5.17-.24,11.55-.24,11.54,.11,11.54,.24Z"/>
      </g>
    </g>
    <g>
      <path class="cls-13" d="M222.75,123.45l20.69,.29c-.16,11.03-9.45,20.02-20.69,20.02-.04,0-.08,0-.12,0l.12-20.3Z"/>
      <path class="cls-14" d="M219.48,120.51l-.29,20.3c-11.24-.15-20.41-9.27-20.41-20.3s9.34-20.3,20.7-20.3,20.7,9.16,20.7,20.3h-20.7Z"/>
    </g>
  </g>
  <g>
    <g>
      <path class="cls-1" d="M204.16,215.46l-7.86,.76c-3.13,3.98-7.49,7.09-12.79,8.65-11.96,3.53-24.95-2.37-30.16-13.7-6.54-14.23,1.13-30.83,16.21-35.08,12.09-3.4,25.08,2.79,30.07,14.32,2.55,5.89,2.7,12.16,.92,17.76h0s3.6,7.29,3.6,7.29Z"/>
      <path class="cls-16" d="M204.28,215.19s-.1-.17-.26-.49c-.17-.34-.41-.8-.72-1.4-.63-1.24-1.54-3.04-2.72-5.36h.2s0,.02,0,.02c-.03,.06-.11,.07-.16,.04-.05-.03-.06-.09-.05-.14,.95-3.09,1.63-7.4,.67-12.34-.46-2.46-1.4-5.04-2.81-7.54-1.41-2.51-3.34-4.93-5.81-6.98-2.46-2.05-5.46-3.72-8.8-4.74-3.34-1.02-7.03-1.37-10.74-.86-7.4,.98-14.83,5.69-18.66,13.02l-.71,1.37-.58,1.43c-.43,.93-.63,1.94-.95,2.9-.45,1.97-.77,3.97-.74,5.95-.03,3.97,.89,7.83,2.53,11.22,1.66,3.38,4.03,6.26,6.76,8.46,2.73,2.21,5.81,3.75,8.9,4.64,6.22,1.78,12.32,.95,16.9-1.05,4.63-1.99,7.81-4.97,9.82-7.48,.03-.01,.05-.03,.08-.04,2.52-.21,4.46-.38,5.81-.49,.65-.05,1.15-.09,1.52-.12,.35-.03,.53-.03,.53-.03,0,0-.15,.03-.48,.07-.36,.04-.85,.1-1.48,.17-1.36,.15-3.33,.36-5.88,.64l.08-.04c-1.98,2.57-5.17,5.62-9.86,7.67-4.62,2.06-10.83,2.95-17.17,1.16-3.15-.89-6.3-2.45-9.09-4.7-2.79-2.24-5.22-5.17-6.92-8.62-1.68-3.45-2.62-7.4-2.6-11.46-.03-2.03,.3-4.07,.76-6.09,.32-.98,.53-2.01,.96-2.97l.59-1.46,.72-1.4c3.92-7.49,11.52-12.3,19.07-13.28,3.79-.51,7.56-.14,10.96,.9,3.41,1.04,6.45,2.76,8.95,4.86,2.51,2.1,4.46,4.58,5.88,7.14,1.42,2.56,2.35,5.17,2.8,7.68,.94,5.02,.2,9.38-.8,12.48l-.21-.1h0c.03-.07,.11-.08,.16-.05,.02,.01,.03,.03,.04,.05,1.14,2.39,2.02,4.23,2.63,5.5,.28,.59,.5,1.06,.66,1.39,.14,.31,.21,.46,.2,.46Z"/>
    </g>
    <g>
      <rect class="cls-9" x="185.42" y="199.61" width="3.88" height="10.93"/>
      <polygon class="cls-9" points="183.98 200.52 190.61 200.52 187.22 197.02 183.98 200.52"/>
    </g>
    <g>
      <rect class="cls-9" x="174.51" y="184.59" width="5.19" height="30.31"/>
      <polygon class="cls-9" points="172.58 185.81 181.46 185.81 176.92 181.14 172.58 185.81"/>
    </g>
    <path class="cls-14" d="M178.19,210.12l-.04,2.85-2.55-.03,.04-2.77c-2.52-.19-4.93-1.01-6.31-2.12l1.44-3.09c1.26,.96,3.08,1.67,4.92,1.87l.06-4.25c-2.82-.72-5.96-1.71-5.91-5.35,.04-2.7,2.03-4.99,6.06-5.39l.04-2.83,2.55,.03-.04,2.78c1.91,.18,3.76,.71,5.15,1.62l-1.31,3.12c-1.29-.76-2.61-1.21-3.88-1.38l-.06,4.33c2.82,.7,5.91,1.68,5.86,5.27-.04,2.65-2,4.91-6,5.34Zm-2.4-11.29l.05-3.62c-1.35,.29-1.9,1.02-1.91,1.86-.01,.89,.75,1.39,1.86,1.76Zm4.3,6.19c.01-.89-.72-1.38-1.81-1.78l-.05,3.51c1.28-.26,1.85-.92,1.86-1.73Z"/>
    <g>
      <rect class="cls-9" x="163.34" y="192.85" width="4.48" height="12.62"/>
      <polygon class="cls-9" points="161.67 193.9 169.33 193.9 165.42 189.86 161.67 193.9"/>
    </g>
  </g>
  <polygon class="cls-8" points="494.94 480.19 518.29 531.76 529.57 531.76 531.18 527.82 533.18 531.76 540.58 531.76 539.72 501.65 539.36 483.87 494.94 480.19"/>
  <g class="cls-10">
    <polygon class="cls-8" points="494.94 480.19 518.29 531.76 529.57 531.76 531.18 527.82 533.18 531.76 540.58 531.76 539.72 501.65 539.36 483.87 494.94 480.19"/>
  </g>
  <polygon class="cls-8" points="597.16 485.71 619.94 531.76 631.21 531.76 632.83 528.16 634.83 531.76 642.23 531.76 641.37 504.2 641 487.92 597.16 485.71"/>
  <g class="cls-10">
    <polygon class="cls-8" points="597.16 485.71 619.94 531.76 631.21 531.76 632.83 528.16 634.83 531.76 642.23 531.76 641.37 504.2 641 487.92 597.16 485.71"/>
  </g>
  <path class="cls-14" d="M726.72,350s.07,.02,.21,.08c.16,.07,.36,.16,.61,.26,.51,.27,1.28,.68,2.12,1.41,.84,.72,1.77,1.74,2.56,3.11,.78,1.37,1.42,3.11,1.54,5.1,.16,1.99-.36,4.23-1.58,6.24-1.22,2.01-3.17,3.77-5.62,4.8-2.42,1.02-5.45,1.26-8.11-.01-1.31-.63-2.46-1.75-3.01-3.18-.57-1.39-.54-3.15,.41-4.46,.93-1.3,2.46-2.01,3.97-2.12,1.54-.11,3.01,.49,4.16,1.37,2.34,1.8,3.42,4.71,3.34,7.34-.06,2.67-1.1,5.1-2.57,6.92-.74,.91-1.59,1.69-2.52,2.27-.93,.58-1.89,.99-2.85,1.29-1.92,.55-3.76,.6-5.32,.4-1.57-.2-2.87-.62-3.88-1.07-1.02-.44-1.74-.91-2.22-1.23-.21-.16-.39-.29-.53-.4-.12-.09-.17-.14-.17-.15,.04-.06,.96,.79,2.99,1.62,1.01,.41,2.3,.81,3.84,.98,1.54,.18,3.33,.11,5.2-.45,.92-.3,1.86-.71,2.75-1.28,.89-.57,1.7-1.33,2.42-2.21,1.41-1.77,2.4-4.14,2.45-6.7,.06-2.53-.98-5.29-3.19-6.99-1.08-.83-2.46-1.38-3.86-1.28-1.39,.1-2.81,.76-3.63,1.93-.85,1.16-.89,2.74-.36,4.03,.5,1.32,1.55,2.36,2.78,2.95,2.5,1.21,5.42,1,7.75,.03,2.36-.98,4.27-2.68,5.46-4.62,1.2-1.94,1.72-4.09,1.58-6.03-.1-1.94-.7-3.65-1.44-5-.75-1.35-1.65-2.37-2.46-3.1-1.64-1.47-2.86-1.81-2.82-1.88Z"/>
  <path class="cls-14" d="M715.57,396.66c3.39,76.53-60.76,114.71-133.38,114.71s-131.49-49.72-131.49-111.06,58.87-111.06,131.49-111.06,130.67,46.13,133.38,107.4Z"/>
  <g class="cls-10">
    <path d="M573.02,316.69s8.72-2.77,16.88,6.45c8.16,9.22,19.51,24.94,19.51,24.94-1.02,5.11-4.01,9.1-9.79,11.47l-26.6-42.86Z"/>
  </g>
  <ellipse class="cls-8" cx="495.72" cy="445.38" rx="45.03" ry="34.51"/>
  <g class="cls-10">
    <ellipse class="cls-8" cx="495.72" cy="445.38" rx="45.03" ry="34.51"/>
  </g>
  <path class="cls-14" d="M537.71,353.14s26.39-40.94,38.47-36.5c12.08,4.44,23.43,42.91,23.43,42.91"/>
  <g class="cls-10">
    <path d="M543.09,304.49l8.76,5.2s42.42-11.22,74.98,0l-11.95-10.17s-39.5-8.49-71.79,4.97Z"/>
  </g>
  <ellipse class="cls-14" cx="484.28" cy="445.38" rx="42.18" ry="34.51"/>
  <g class="cls-10">
    <path d="M468.07,461.57h0c-2.49,0-4.51-2.02-4.51-4.51v-23.35c0-2.49,2.02-4.51,4.51-4.51h0c2.49,0,4.51,2.02,4.51,4.51v23.35c0,2.49-2.02,4.51-4.51,4.51Z"/>
  </g>
  <g class="cls-10">
    <rect x="487.8" y="429.19" width="9.02" height="32.37" rx="4.29" ry="4.29"/>
  </g>
  <path class="cls-8" d="M505.31,344.84c3.8-2.14,5.83-5.34,4.4-10.63,0,0-19.6-8.45-34.4-11.83-14.8-3.38-17.71,0-17.71,0l23.41,32.8,24.3-10.34Z"/>
  <path class="cls-14" d="M506.64,345.74s-1.1-.75-2.95-1.99c-8.73-5.83-34.24-22.49-40.7-22.68-8.88-.26-8.89,7.4-8.88,13.32,0,4.2,3.45,40.69,3.45,40.69"/>
  <path class="cls-16" d="M599.62,359.55s-.04-.08-.1-.25c-.07-.19-.15-.44-.25-.75-.23-.69-.56-1.66-.97-2.9-.85-2.51-2.12-6.14-3.85-10.55-1.75-4.4-3.93-9.63-6.92-15.13-1.52-2.73-3.19-5.58-5.35-8.19-1.07-1.31-2.26-2.58-3.66-3.6-1.39-1.01-3.04-1.84-4.81-1.63-1.76,.15-3.42,.87-4.93,1.72-1.52,.85-2.92,1.87-4.25,2.93-2.64,2.14-4.99,4.45-7.13,6.73-4.28,4.57-7.8,9-10.68,12.76-2.87,3.77-5.1,6.9-6.62,9.07-.74,1.07-1.33,1.91-1.74,2.51-.19,.27-.34,.48-.46,.65-.1,.15-.16,.22-.17,.21,0,0,.04-.09,.13-.24,.11-.17,.25-.4,.42-.68,.37-.59,.93-1.46,1.67-2.56,1.48-2.2,3.66-5.37,6.51-9.17,2.85-3.79,6.35-8.25,10.63-12.86,2.15-2.29,4.49-4.63,7.16-6.79,1.34-1.07,2.76-2.11,4.31-2.98,1.55-.86,3.25-1.62,5.12-1.78,.93-.08,1.89,.03,2.74,.39,.85,.35,1.64,.81,2.36,1.33,1.45,1.05,2.66,2.35,3.74,3.68,2.19,2.66,3.86,5.52,5.38,8.28,2.98,5.54,5.14,10.78,6.85,15.21,1.7,4.43,2.92,8.08,3.72,10.61,.4,1.27,.7,2.25,.89,2.92,.09,.32,.16,.57,.21,.77,.04,.17,.06,.26,.06,.27Z"/>
  <path class="cls-16" d="M614.88,299.51s.08,.05,.22,.16c.16,.13,.36,.29,.61,.49,.55,.46,1.32,1.1,2.3,1.92,2.01,1.71,4.88,4.14,8.41,7.13l.56,.47-.71-.2c-4.36-1.22-9.59-2.46-15.47-3.37-5.88-.92-12.41-1.51-19.27-1.57-16.33-.27-30.66,2.81-39.31,5.29l-.06,.02-.05-.03c-2.84-1.66-5.09-2.98-6.66-3.9-.75-.45-1.33-.8-1.76-1.05-.18-.11-.33-.2-.45-.28-.1-.06-.15-.1-.14-.11,0,0,.06,.02,.16,.07,.12,.07,.28,.15,.47,.25,.43,.24,1.03,.57,1.79,.99,1.59,.9,3.86,2.18,6.72,3.79h-.11c4.34-1.29,10.06-2.75,16.79-3.82,3.36-.55,6.97-.96,10.76-1.29,3.79-.25,7.76-.45,11.85-.38,6.88,.07,13.43,.67,19.33,1.61,5.9,.94,11.14,2.21,15.5,3.47l-.15,.28c-3.49-3.04-6.33-5.51-8.31-7.24-.96-.85-1.71-1.51-2.25-1.99-.24-.22-.43-.39-.58-.53-.13-.12-.19-.18-.19-.19Z"/>
  <path class="cls-16" d="M509.44,417.68s-.09-.04-.25-.15c-.18-.12-.41-.27-.7-.46-.31-.21-.69-.47-1.13-.76-.46-.28-1.01-.57-1.62-.91-2.45-1.33-6.23-2.89-11.14-3.78-2.46-.42-5.18-.7-8.12-.76-2.93-.02-6.07,.18-9.33,.69-6.5,1-13.55,3.36-19.81,7.71-1.55,1.1-3.02,2.27-4.36,3.54-1.33,1.29-2.58,2.62-3.66,4.04-2.19,2.83-3.89,5.89-5.05,8.96-2.23,6.21-2.18,12.38-1.1,17.21,.55,2.43,1.41,4.53,2.27,6.31,.94,1.74,1.88,3.17,2.76,4.25,.45,.53,.85,1,1.2,1.42,.38,.37,.7,.69,.97,.95,.25,.25,.44,.44,.59,.59,.13,.14,.2,.21,.19,.21,0,0-.08-.05-.22-.18-.16-.14-.36-.33-.62-.56-.28-.26-.61-.57-1-.93-.36-.41-.77-.88-1.24-1.4-.91-1.07-1.88-2.5-2.85-4.25-.89-1.79-1.78-3.9-2.36-6.35-1.13-4.88-1.22-11.12,1.02-17.43,.6-1.56,1.29-3.12,2.16-4.63,.83-1.53,1.83-3.01,2.93-4.45,1.1-1.45,2.36-2.79,3.7-4.1,1.36-1.29,2.85-2.48,4.41-3.59,6.33-4.39,13.45-6.76,20-7.75,3.28-.5,6.44-.68,9.4-.65,2.95,.07,5.69,.38,8.17,.82,4.94,.94,8.73,2.56,11.17,3.94,.6,.36,1.15,.66,1.6,.95,.43,.31,.8,.58,1.11,.8,.28,.21,.5,.37,.67,.5,.15,.11,.22,.18,.22,.18Z"/>
  <path class="cls-16" d="M472.33,432.22s.06,.49,.1,1.38c.04,.97,.09,2.23,.16,3.76,.13,3.17,.39,7.55,.51,12.41,.03,1.21,.04,2.4,.03,3.54,0,1.15-.05,2.27-.25,3.32-.36,2.11-1.56,3.9-3.06,4.63-1.53,.74-2.99,.32-3.72-.19-.38-.26-.61-.53-.74-.73-.13-.2-.17-.32-.16-.33,.04-.03,.25,.46,.99,.91,.71,.44,2.1,.78,3.48,.06,1.37-.71,2.47-2.39,2.8-4.42,.18-1.01,.21-2.11,.21-3.25,0-1.14-.01-2.32-.04-3.53-.12-4.84-.33-9.23-.38-12.41-.03-1.59-.03-2.88-.02-3.77,.02-.89,.05-1.38,.08-1.38Z"/>
  <path class="cls-16" d="M496.25,432.22s.06,.49,.1,1.38c.04,.97,.09,2.23,.16,3.76,.13,3.17,.39,7.55,.51,12.41,.03,1.21,.04,2.4,.03,3.54,0,1.15-.05,2.27-.25,3.32-.36,2.11-1.56,3.9-3.06,4.63-1.53,.74-2.99,.32-3.72-.19-.38-.26-.61-.53-.74-.73-.13-.2-.17-.32-.16-.33,.04-.03,.25,.46,.99,.91,.71,.44,2.1,.78,3.48,.06,1.37-.71,2.47-2.39,2.8-4.42,.18-1.01,.21-2.11,.21-3.25,0-1.14-.01-2.32-.04-3.53-.12-4.84-.33-9.23-.38-12.41-.03-1.59-.03-2.88-.02-3.77,.02-.89,.05-1.38,.08-1.38Z"/>
  <path class="cls-16" d="M525.95,452.89s-.05,.21-.18,.6c-.15,.38-.31,.96-.64,1.67-.58,1.44-1.61,3.45-3.16,5.76-1.54,2.31-3.7,4.85-6.41,7.34-1.37,1.22-2.87,2.44-4.52,3.58-1.65,1.13-3.43,2.2-5.33,3.15-3.79,1.9-7.61,3.31-11.22,4.07-3.6,.8-6.93,.96-9.7,.98-2.78-.01-5.01-.17-6.56-.28-.74-.06-1.33-.11-1.78-.14-.41-.04-.62-.06-.62-.08,0-.02,.22-.02,.62-.01,.45,.01,1.04,.03,1.78,.06,1.55,.05,3.78,.16,6.55,.14,2.76-.05,6.06-.24,9.61-1.06,3.56-.77,7.34-2.18,11.11-4.06,1.88-.94,3.64-1.99,5.28-3.11,1.63-1.13,3.12-2.33,4.49-3.53,2.7-2.45,4.86-4.94,6.43-7.21,1.57-2.27,2.63-4.24,3.26-5.65,.35-.69,.54-1.26,.72-1.63,.16-.37,.25-.57,.27-.56Z"/>
  <path class="cls-1" d="M471.81,431.26s-.15-.36-.6-.86c-.43-.49-1.29-1.07-2.47-1.12-1.16-.05-2.61,.47-3.65,1.63-.52,.57-.9,1.31-1.11,2.13-.21,.82-.26,1.72-.26,2.64,.03,3.72,.05,7.1,.03,9.54-.02,1.15-.03,2.12-.04,2.89-.02,.68-.05,1.06-.08,1.06-.03,0-.06-.38-.1-1.06-.03-.78-.06-1.74-.1-2.89-.06-2.44-.13-5.81-.16-9.54,0-.94,.05-1.87,.28-2.75,.22-.88,.65-1.69,1.23-2.3,1.15-1.24,2.71-1.76,3.97-1.67,1.28,.09,2.18,.77,2.59,1.32,.22,.28,.33,.53,.4,.7,.06,.17,.08,.27,.06,.27Z"/>
  <path class="cls-1" d="M487.66,433.26c.12,0,.23,4.56,.23,10.18s-.1,10.19-.23,10.19-.23-4.56-.23-10.19,.1-10.18,.23-10.18Z"/>
  <path class="cls-1" d="M480.4,413.62s-.18,.03-.53,.04c-.35,.02-.86,0-1.52,.03-1.32,.04-3.23,.18-5.55,.6-4.62,.8-10.96,3.01-16.55,7.57-5.6,4.56-9.05,10.32-10.77,14.67-.88,2.19-1.41,4.03-1.71,5.31-.17,.64-.25,1.14-.34,1.48-.08,.34-.13,.52-.14,.51-.02,0,0-.18,.05-.53,.06-.34,.11-.86,.26-1.51,.25-1.3,.74-3.17,1.59-5.39,1.66-4.42,5.11-10.29,10.78-14.91,5.67-4.61,12.11-6.8,16.78-7.53,2.35-.38,4.27-.48,5.6-.46,.66-.01,1.18,.04,1.53,.05,.35,.02,.53,.04,.53,.06Z"/>
  <path class="cls-1" d="M457.78,369.54s-.04,.18-.16,.49c-.14,.36-.32,.81-.53,1.37-.24,.59-.53,1.31-.83,2.17-.3,.85-.68,1.81-1.01,2.9-.36,1.08-.74,2.27-1.08,3.57-.39,1.28-.7,2.68-1.06,4.14-.65,2.94-1.22,6.21-1.59,9.66-.35,3.46-.46,6.77-.43,9.78,.05,1.51,.07,2.94,.18,4.27,.07,1.34,.2,2.58,.33,3.71,.1,1.14,.27,2.15,.39,3.05,.11,.9,.25,1.67,.36,2.3,.1,.59,.18,1.07,.24,1.45,.05,.33,.07,.51,.05,.51-.02,0-.06-.17-.14-.49-.08-.38-.19-.85-.32-1.44-.14-.62-.3-1.39-.44-2.29-.14-.9-.34-1.91-.46-3.05-.15-1.14-.3-2.38-.38-3.72-.13-1.34-.17-2.78-.22-4.29-.05-3.03,.05-6.36,.4-9.84,.37-3.48,.96-6.76,1.64-9.71,.37-1.47,.7-2.87,1.1-4.15,.36-1.3,.77-2.48,1.14-3.56,.35-1.09,.75-2.04,1.08-2.89,.32-.85,.63-1.57,.9-2.15,.25-.54,.45-.99,.61-1.34,.14-.3,.23-.46,.24-.45Z"/>
  <path class="cls-1" d="M459.07,324.55s-.35,.47-.87,1.37c-.52,.9-1.11,2.31-1.45,4.15-.36,1.83-.48,4.07-.53,6.55-.07,2.48-.08,5.22-.01,8.08,.14,5.74,.6,10.91,1.04,14.65,.23,1.81,.41,3.31,.55,4.42,.06,.48,.11,.88,.15,1.2,.03,.28,.04,.42,.02,.42-.02,0-.05-.14-.11-.41-.06-.32-.14-.72-.24-1.19-.19-1.04-.44-2.54-.7-4.41-.52-3.73-1.03-8.92-1.17-14.68-.07-2.88-.04-5.62,.05-8.11,.08-2.49,.23-4.75,.64-6.6,.39-1.86,1.04-3.29,1.61-4.18,.29-.45,.53-.78,.72-.98,.18-.21,.29-.31,.3-.3Z"/>
  <path class="cls-1" d="M543.29,297.44s-.19,.09-.55,.23c-.41,.15-.94,.33-1.61,.57-1.45,.5-3.46,1.19-5.93,2.04-5,1.74-11.91,4.15-19.22,7.56-7.32,3.41-13.5,7.37-17.62,10.68-2.07,1.64-3.66,3.07-4.73,4.09-.55,.5-.94,.91-1.23,1.18-.28,.27-.44,.4-.45,.39-.01-.01,.12-.17,.38-.46,.27-.28,.64-.72,1.17-1.24,1.04-1.06,2.6-2.53,4.66-4.21,4.09-3.39,10.28-7.41,17.63-10.83,7.34-3.43,14.29-5.79,19.31-7.46,2.52-.83,4.56-1.47,5.98-1.9,.67-.2,1.22-.36,1.63-.49,.38-.11,.57-.16,.58-.14Z"/>
  <path class="cls-1" d="M573.4,318.89s-.12,.12-.39,.31c-.3,.21-.68,.48-1.15,.81-1.01,.69-2.45,1.73-4.19,3.04-1.75,1.31-3.77,2.95-5.96,4.84-2.17,1.91-4.49,4.08-6.81,6.47-2.31,2.41-4.39,4.81-6.22,7.05-1.81,2.25-3.37,4.34-4.61,6.13-1.25,1.79-2.23,3.27-2.88,4.3-.31,.48-.57,.87-.77,1.18-.18,.27-.28,.4-.29,.4-.01,0,.06-.16,.22-.44,.18-.32,.42-.73,.7-1.23,.61-1.06,1.55-2.57,2.77-4.39,1.22-1.83,2.76-3.94,4.55-6.21,1.82-2.26,3.9-4.68,6.22-7.1,2.33-2.4,4.67-4.58,6.86-6.48,2.21-1.88,4.26-3.5,6.04-4.78,1.77-1.29,3.24-2.29,4.28-2.93,.49-.3,.88-.55,1.2-.74,.28-.17,.43-.25,.43-.23Z"/>
  <path class="cls-1" d="M706.75,379.09c.05-.02,.47,.8,1.02,2.18,.55,1.38,1.23,3.33,1.79,5.54,.56,2.21,.9,4.24,1.07,5.72,.17,1.48,.2,2.4,.14,2.41-.07,0-.2-.9-.45-2.36-.25-1.46-.64-3.47-1.19-5.66-.56-2.19-1.17-4.14-1.65-5.54-.47-1.4-.79-2.27-.73-2.29Z"/>
  <path class="cls-16" d="M686.04,478.26s-.14,.12-.42,.32c-.3,.21-.72,.51-1.27,.91-.57,.4-1.26,.89-2.08,1.46-.41,.29-.86,.6-1.33,.93-.49,.32-1,.65-1.55,1-4.33,2.91-10.82,6.81-19.18,10.96-2.1,1.03-4.32,2.04-6.64,3.1-1.17,.5-2.37,1-3.59,1.52-.61,.26-1.23,.52-1.85,.78-.63,.24-1.26,.49-1.9,.73-1.28,.49-2.58,.99-3.91,1.5-1.34,.46-2.7,.93-4.08,1.41-1.38,.5-2.8,.93-4.23,1.36-1.44,.43-2.88,.92-4.38,1.31-5.93,1.7-12.27,3.1-18.88,4.25-6.62,1.13-13.54,1.95-20.66,2.22-7.12,.3-14.09,.08-20.77-.65-.84-.08-1.67-.16-2.5-.24-.83-.08-1.65-.22-2.46-.33-1.63-.23-3.25-.46-4.85-.69-1.59-.29-3.16-.59-4.71-.87-.78-.15-1.55-.29-2.32-.44-.76-.17-1.52-.35-2.27-.52-12.05-2.69-22.61-6.34-31.14-10.13-8.54-3.77-15.12-7.53-19.46-10.43-2.23-1.36-3.82-2.63-4.94-3.41-.55-.4-.96-.7-1.26-.92-.28-.21-.42-.33-.42-.33,0,0,.16,.09,.45,.29,.3,.21,.73,.5,1.29,.88,1.14,.76,2.75,2,4.99,3.34,4.36,2.84,10.96,6.55,19.5,10.28,8.53,3.75,19.07,7.35,31.1,10.02,.75,.17,1.51,.34,2.27,.51,.77,.14,1.54,.29,2.31,.43,1.55,.28,3.12,.57,4.7,.86,1.6,.22,3.21,.45,4.84,.68,.82,.11,1.63,.25,2.46,.33,.83,.08,1.66,.16,2.49,.24,6.66,.72,13.62,.94,20.71,.64,7.1-.27,14-1.08,20.61-2.21,6.6-1.14,12.92-2.52,18.85-4.21,1.49-.38,2.93-.87,4.37-1.3,1.44-.43,2.85-.86,4.23-1.35,1.38-.47,2.74-.94,4.08-1.4,1.32-.5,2.62-1,3.9-1.48,.64-.24,1.27-.48,1.9-.72,.62-.26,1.24-.52,1.85-.77,1.22-.51,2.41-1.01,3.59-1.5,2.31-1.05,4.54-2.05,6.64-3.07,8.37-4.1,14.87-7.96,19.22-10.82,.55-.35,1.07-.68,1.56-.99,.48-.32,.92-.63,1.34-.91,.83-.56,1.53-1.04,2.1-1.43,.56-.38,.99-.66,1.3-.87,.29-.19,.45-.28,.45-.28Z"/>
  <polygon class="cls-14" points="648.78 487.53 666.17 531.99 678.05 531.99 680.64 528.12 683.69 531.99 687.89 531.99 689.45 461.52 648.78 487.53"/>
  <path class="cls-14" d="M539.54,493.79l14.7,38.21h13.51l2.76-4.43,2.66,4.43h3.36s1.47-43.11,0-44.33c-1.47-1.22-36.98,6.12-36.98,6.12Z"/>
  <path class="cls-1" d="M711.24,408.39s0,.09,0,.25c-.02,.19-.03,.44-.06,.74-.06,.68-.15,1.64-.27,2.85-.06,.62-.13,1.31-.2,2.06-.1,.75-.25,1.56-.39,2.43-.31,1.74-.56,3.74-1.12,5.9-.25,1.08-.52,2.22-.8,3.4-.29,1.18-.7,2.38-1.06,3.64-.69,2.53-1.71,5.14-2.73,7.9-2.21,5.46-5.05,11.29-8.65,17.07-3.66,5.74-7.69,10.83-11.66,15.18-2.05,2.11-3.96,4.16-5.94,5.88-.98,.87-1.88,1.76-2.82,2.53-.95,.76-1.86,1.49-2.72,2.19-1.7,1.44-3.4,2.53-4.83,3.56-.73,.5-1.39,.99-2.02,1.4-.64,.39-1.24,.75-1.77,1.08-1.04,.63-1.87,1.12-2.46,1.47-.26,.15-.48,.28-.64,.37-.15,.08-.22,.12-.23,.11s.07-.06,.2-.15c.16-.11,.37-.24,.62-.41,.58-.37,1.38-.89,2.41-1.54,.53-.33,1.11-.7,1.75-1.11,.63-.42,1.28-.92,2-1.43,1.42-1.05,3.1-2.16,4.78-3.61,.86-.7,1.76-1.44,2.7-2.21,.93-.77,1.83-1.66,2.79-2.54,1.97-1.72,3.86-3.77,5.89-5.88,3.93-4.35,7.94-9.42,11.58-15.14,3.58-5.75,6.42-11.56,8.64-16.98,1.02-2.75,2.06-5.34,2.76-7.86,.37-1.25,.79-2.44,1.08-3.62,.29-1.18,.56-2.31,.82-3.38,.58-2.14,.86-4.14,1.19-5.87,.15-.87,.32-1.67,.43-2.42,.09-.75,.17-1.43,.24-2.05,.15-1.21,.27-2.16,.35-2.84,.04-.3,.08-.55,.1-.74,.03-.17,.04-.25,.05-.25Z"/>
  <g>
    <g class="cls-7">
      <path class="cls-1" d="M692.43,370.88c-3.95-9.78-12.55-19.01-22.52-23.05-8.1-3.29-17.1,2.51-17.56,11.24,0,.06,0,.12,0,.19-.31,6.27,2.15,12.34,5.16,17.85,3.01,5.5,6.63,10.7,8.97,16.52,3.86,9.58,3.99,20.61,.35,30.28-2.32,6.16-6.17,12.72-2.68,18.86,2.28,4.03,6.88,6.01,11.49,5.59,8.83-.8,13.42-8.78,17.61-16.03,3.37-5.83,6.14-14.9,6.3-21.74,.33-14.15-1.81-26.57-7.11-39.7Z"/>
    </g>
    <g class="cls-7">
      <path class="cls-1" d="M659.34,345.66c.22,0,.44,.03,.66,.03,.02,0,.03-.01,.05-.02h-.71Z"/>
    </g>
  </g>
  <path class="cls-16" d="M482.06,392.1c0,3.43-2.78,6.22-6.22,6.22s-6.22-2.78-6.22-6.22,2.78-6.22,6.22-6.22,6.22,2.78,6.22,6.22Z"/>
  <path class="cls-16" d="M545.96,393.72c0,3.43-2.78,6.22-6.22,6.22s-6.22-2.78-6.22-6.22,2.78-6.22,6.22-6.22,6.22,2.78,6.22,6.22Z"/>
  <path class="cls-1" d="M690.39,341.2s-.16-.15-.43-.47c-.29-.35-.68-.82-1.16-1.39-.5-.61-1.11-1.36-1.85-2.19-.74-.84-1.55-1.82-2.52-2.85-.95-1.04-1.99-2.18-3.16-3.35-1.14-1.2-2.43-2.41-3.77-3.7-2.72-2.53-5.81-5.22-9.2-7.85-3.41-2.61-6.79-4.92-9.93-6.91-1.59-.97-3.09-1.91-4.54-2.7-1.43-.84-2.79-1.56-4.04-2.21-1.23-.68-2.39-1.21-3.39-1.71-1-.51-1.87-.91-2.59-1.23-.68-.32-1.23-.57-1.64-.77-.37-.18-.57-.28-.56-.3,0-.01,.21,.06,.6,.21,.42,.18,.98,.41,1.68,.69,.73,.3,1.62,.68,2.63,1.17,1.01,.48,2.18,1,3.43,1.66,1.26,.64,2.63,1.34,4.08,2.17,1.46,.79,2.97,1.72,4.57,2.68,3.16,1.98,6.56,4.29,9.98,6.91,3.4,2.64,6.5,5.35,9.21,7.9,1.34,1.3,2.62,2.53,3.75,3.74,1.16,1.19,2.19,2.34,3.13,3.39,.95,1.04,1.75,2.04,2.47,2.9,.73,.85,1.32,1.62,1.79,2.25,.45,.6,.82,1.08,1.1,1.45,.25,.33,.37,.51,.36,.52Z"/>
  <path class="cls-1" d="M624.98,313.25s-.24-.05-.67-.2c-.47-.16-1.11-.38-1.9-.65-.82-.3-1.83-.65-3.02-.99-1.19-.36-2.52-.81-4.03-1.18-.75-.2-1.54-.41-2.36-.62-.82-.21-1.69-.38-2.58-.58-1.78-.43-3.71-.74-5.74-1.1-4.07-.63-8.57-1.1-13.32-1.26-4.75-.12-9.28,.1-13.38,.49-2.04,.24-3.99,.44-5.79,.77-.9,.15-1.78,.27-2.61,.43-.83,.17-1.63,.33-2.4,.49-1.53,.28-2.89,.66-4.1,.95-1.21,.28-2.23,.57-3.07,.82-.81,.23-1.45,.41-1.93,.54-.44,.12-.68,.18-.68,.16,0-.01,.22-.1,.66-.25,.48-.16,1.11-.36,1.91-.63,.83-.28,1.85-.59,3.05-.9,1.2-.31,2.56-.71,4.09-1.02,.76-.17,1.56-.34,2.4-.52,.83-.18,1.71-.3,2.62-.46,1.81-.34,3.76-.56,5.81-.81,4.11-.42,8.66-.65,13.43-.53,4.77,.16,9.3,.65,13.38,1.3,2.03,.37,3.97,.7,5.75,1.15,.89,.21,1.76,.39,2.59,.61,.82,.23,1.61,.45,2.36,.66,1.51,.39,2.85,.87,4.03,1.25,1.18,.37,2.19,.75,3,1.07,.78,.31,1.41,.55,1.87,.73,.43,.17,.65,.27,.64,.28Z"/>
  <path class="cls-16" d="M558.29,418.38s.38,.12,.95,.52c.57,.4,1.34,1.1,2.05,2.16,.69,1.06,1.29,2.5,1.4,4.19,.12,1.69-.38,3.58-1.46,5.2-1.09,1.62-2.65,2.79-4.26,3.33-1.61,.55-3.17,.53-4.41,.3-1.25-.25-2.18-.7-2.77-1.08-.59-.38-.86-.66-.85-.68,.05-.11,1.26,.99,3.68,1.38,1.19,.18,2.68,.15,4.18-.39,1.5-.52,2.95-1.63,3.98-3.15,1.02-1.53,1.5-3.29,1.41-4.87-.07-1.59-.6-2.98-1.22-4.01-1.28-2.1-2.75-2.79-2.67-2.89Z"/>
  <g>
    <g>
      <g>
        <path class="cls-13" d="M265.56,501.92l-.71,18.81s18.88,7.04,19.08,10.52l-36.51-.07-.1-29.35,18.23,.08Z"/>
        <path class="cls-9" d="M253.56,519.12c-.71,.19-1.2,.99-1.03,1.7,.16,.71,.97,1.22,1.68,1.04,.71-.18,1.33-1.11,1.09-1.81-.24-.69-1.22-1.23-1.86-.89"/>
        <path class="cls-16" d="M247.42,531.19l.11-2.96,34.97,1.17s1.62,.71,1.44,1.85l-36.51-.07Z"/>
        <path class="cls-1" d="M265.44,520.54c0,.18-.9,.26-1.78,.83-.89,.55-1.35,1.32-1.51,1.25-.16-.03,.1-1.1,1.18-1.77,1.07-.68,2.15-.47,2.11-.3Z"/>
        <path class="cls-1" d="M269.27,522.13c.04,.17-.73,.47-1.34,1.23-.63,.74-.78,1.55-.96,1.54-.17,.03-.29-1.02,.48-1.94,.76-.93,1.81-1,1.82-.83Z"/>
        <path class="cls-1" d="M271.44,526.72c-.16,.04-.41-.85,.05-1.83,.45-.98,1.29-1.36,1.37-1.21,.1,.15-.44,.67-.81,1.48-.38,.8-.44,1.55-.61,1.57Z"/>
        <path class="cls-1" d="M265.13,516.24c-.08,.16-.89-.09-1.9-.02-1.01,.05-1.79,.38-1.89,.23-.1-.13,.66-.79,1.85-.85,1.19-.07,2.02,.5,1.93,.64Z"/>
      </g>
      <g>
        <path class="cls-13" d="M221.76,503.09l-1.01,22.75,4.39,18.22c.32,1.31-.55,2.62-1.88,2.85h0c-.75,.13-1.5-.11-2.04-.65-3.4-3.41-15.51-16.17-15.57-17.39-.08-1.93-.64-24.34-.64-24.34l16.75-1.44Z"/>
        <path class="cls-16" d="M223.25,546.9l-17.69-19.84-.02,.96c.06,.98,.26,1.65,.78,2.29,1.41,1.73,5.4,6.42,14.82,15.94,.55,.55,1.34,.8,2.1,.65h0Z"/>
        <g class="cls-4">
          <path class="cls-1" d="M210.4,519.81c.56,.41,.73,1.27,.35,1.85-.38,.58-1.26,.76-1.83,.36-.57-.4-.8-1.43-.36-1.96,.45-.53,1.49-.68,1.95-.16"/>
        </g>
        <path class="cls-1" d="M218.26,536.84c.13,.07,.67-1.12,2.03-1.73,1.35-.65,2.6-.3,2.63-.44,.02-.06-.26-.24-.79-.33-.53-.09-1.3-.03-2.05,.32-.75,.35-1.29,.9-1.56,1.36-.28,.46-.32,.8-.26,.82Z"/>
        <path class="cls-1" d="M219.82,539.92c.11,.1,.85-.62,2.04-.93,1.18-.34,2.19-.1,2.23-.24,.07-.11-1.02-.62-2.36-.24-1.35,.36-2.02,1.35-1.9,1.42Z"/>
        <path class="cls-1" d="M215.33,532.87c.1,.11,1.25-1.01,3.05-1.66,1.79-.67,3.39-.56,3.39-.71,.04-.12-1.64-.47-3.57,.24-1.93,.7-2.98,2.06-2.87,2.12Z"/>
        <path class="cls-1" d="M215.06,525.93c.06,.14,1.33-.36,2.96-.38,1.64-.05,2.93,.4,2.98,.26,.07-.11-1.23-.8-2.99-.76-1.76,.03-3.02,.78-2.95,.88Z"/>
        <path class="cls-1" d="M215.19,519.24c.07,.13,1.35-.6,3.08-.48,1.73,.08,2.92,.95,3,.82,.04-.05-.2-.34-.72-.65-.51-.31-1.32-.62-2.25-.67-.93-.05-1.77,.16-2.31,.41-.55,.25-.82,.52-.79,.57Z"/>
        <path class="cls-1" d="M218.25,517.49s.09-.3,.05-.86c-.04-.55-.18-1.37-.64-2.27-.24-.43-.48-.98-1.11-1.29-.31-.16-.78-.11-1.06,.19-.27,.29-.37,.66-.38,1.02,0,1.45,1.2,2.87,2.82,3.11,1.63,.21,3.13-.69,3.8-1.92,.15-.32,.25-.71,.09-1.1-.17-.39-.62-.56-.95-.51-.68,.09-1.11,.47-1.52,.75-.8,.61-1.3,1.27-1.59,1.73-.3,.47-.39,.77-.37,.78,.08,.06,.6-1.11,2.17-2.23,.39-.26,.85-.58,1.34-.62,.24-.02,.44,.08,.52,.27,.08,.19,.03,.47-.1,.72-.57,1.01-1.94,1.83-3.31,1.63-1.37-.19-2.43-1.44-2.43-2.61,0-.28,.08-.56,.24-.72,.15-.16,.38-.2,.58-.11,.44,.19,.73,.67,.96,1.08,.92,1.69,.8,2.98,.9,2.96Z"/>
      </g>
      <g>
        <path class="cls-16" d="M276.79,344.62s3.22,10.59,2.77,23.68c-.17,5.06-11.29,145.45-11.29,145.45l-23,.98,.9-131.53-1.87,.49s-10.18,56.52-10.82,65.62c-.58,8.19-8.65,67.82-8.65,67.82l-20.95-.58,3.32-76.86,4.63-75.45,2.01-21.99,62.94,2.38Z"/>
        <path class="cls-13" d="M241.98,369.95s.33,.21,.98,.5c.65,.27,1.61,.69,2.89,.88,.64,.09,1.37,.09,2.12-.07,.75-.17,1.54-.52,2.17-1.16,.63-.64,1.01-1.51,1.24-2.41,.23-.91,.35-1.84,.5-2.79,.57-3.82,.92-7.3,1.11-9.82,.09-1.26,.14-2.28,.17-2.99,.02-.71,.02-1.1-.02-1.1-.03,0-.09,.39-.17,1.09-.09,.8-.19,1.8-.32,2.97-.27,2.51-.67,5.97-1.24,9.78-.29,1.88-.46,3.8-1.58,4.96-1.12,1.14-2.74,1.33-3.93,1.2-1.23-.13-2.2-.49-2.86-.71-.67-.23-1.04-.36-1.05-.32Z"/>
        <path class="cls-13" d="M248.15,351.85s-.15-.11-.48-.12c-.32-.01-.8,.11-1.27,.47-.45,.36-.91,.99-.89,1.82,0,.84,.69,1.64,1.56,1.91,.86,.3,1.89,.06,2.39-.62,.5-.66,.5-1.44,.35-1.99-.16-.57-.48-.95-.75-1.13-.27-.19-.45-.21-.46-.19-.06,.07,.66,.36,.87,1.39,.09,.49,.04,1.14-.37,1.63-.39,.5-1.17,.68-1.89,.44-.71-.23-1.24-.84-1.26-1.47-.04-.63,.31-1.19,.67-1.53,.78-.71,1.53-.52,1.52-.61Z"/>
        <path class="cls-13" d="M212.1,362.87s.28,.06,.79,.09c.51,.03,1.25,.02,2.16-.07,1.82-.16,4.32-.71,6.86-1.9,2.53-1.2,4.55-2.79,5.83-4.09,.64-.65,1.13-1.21,1.42-1.62,.3-.41,.46-.64,.43-.66-.07-.05-.77,.82-2.09,2.04-1.32,1.22-3.32,2.72-5.8,3.9-2.48,1.16-4.91,1.75-6.69,2-1.78,.25-2.9,.23-2.91,.32Z"/>
      </g>
    </g>
    <g>
      <polygon class="cls-11" points="299.66 272.48 312.4 247.1 322.09 252.03 313.8 280.39 299.66 272.48"/>
      <g>
        <path class="cls-11" d="M325.29,250.84c1.43-2.37,3.14-4.96,3.14-4.96l1.39-2.38c.12,.14,.22,.3,.32,.45,.18,.3,.37,.61,.67,.79,.58,.33,1.32,0,1.81-.44,1.03-.94,1.51-2.44,1.2-3.79-.29-1.3-1.3-2.4-2.57-2.82-.17-.31-.4-.6-.73-.87-2.01-1.63-5.6-.51-5.6-.51l.37-.9s2.14-2.12,6.87-.48c.71,.25,1.49,.26,2.19-.03,.42-.18,.81-.46,.96-.93,.37-1.16-.35-1.72-3.3-2.79-2.94-1.07-6.14-1.13-7.9,.03-1.76,1.16-2.37,1.72-2.37,1.72,0,0,2.87-8.32,3.03-8.85,.46-1.54,.16-3.04-.84-3.44-.64-.26-1.64-.11-2.24,1.67-.52,1.54-7.81,16.67-7.81,16.67l-2.83,6.88-1.42,6.05,8.83,4.01,2.22-1.39c1.92-.65,3.55-1.96,4.6-3.69Z"/>
        <g>
          <path class="cls-11" d="M312.62,245.72c.79,.53,1.91,.18,2.64-.44,.73-.62,1.23-1.47,1.92-2.13,2.05-2,5.44-2.17,7.39-4.27,.27-.29,.52-.74,.29-1.06-.21-.3-.66-.26-1.02-.2-3.11,.59-6.21,1.18-9.32,1.77"/>
          <path class="cls-12" d="M314.52,239.4s.35-.14,.99-.29c.64-.16,1.58-.36,2.73-.61,1.2-.25,2.57-.53,4.07-.83,.38-.08,.78-.15,1.18-.23,.38-.05,.85-.27,1.42,.06,.27,.18,.37,.57,.29,.84-.07,.28-.21,.49-.37,.68-.33,.34-.67,.65-1.06,.91-1.56,1.06-3.27,1.48-4.63,2.18-.69,.34-1.3,.73-1.78,1.19-.49,.46-.87,.98-1.27,1.43-.77,.94-1.79,1.4-2.48,1.36-.71-.02-1-.35-.98-.36,.02-.05,.34,.2,.97,.15,.63-.04,1.49-.47,2.2-1.4,.37-.44,.74-.99,1.25-1.5,.51-.51,1.16-.95,1.87-1.31,1.41-.75,3.1-1.2,4.54-2.18,.36-.24,.68-.53,.96-.82,.26-.29,.36-.65,.17-.74-.19-.14-.61-.06-1.01,.02-.4,.07-.79,.14-1.18,.22-1.5,.26-2.88,.51-4.09,.72-1.16,.2-2.11,.35-2.76,.44-.65,.09-1.02,.13-1.03,.09Z"/>
        </g>
        <path class="cls-12" d="M324.8,236.31c.06,.04,.2-.74,1.09-1.43,.44-.33,1.07-.57,1.8-.58,.73-.02,1.53,.16,2.36,.41,.83,.25,1.64,.5,2.42,.57,.78,.06,1.5-.03,2.05-.3,.56-.27,.83-.76,.88-1.08,.06-.33,0-.51,0-.51-.03,0-.03,.18-.13,.47-.09,.29-.35,.68-.86,.89-.5,.21-1.18,.28-1.91,.2-.73-.08-1.52-.33-2.36-.58-.84-.25-1.68-.44-2.47-.4-.79,.03-1.49,.31-1.95,.7-.46,.39-.7,.82-.82,1.12-.12,.31-.13,.49-.11,.5Z"/>
        <path class="cls-12" d="M324.95,223.48s-.25,.62-.58,1.65c-.37,1.14-.81,2.5-1.3,4-.51,1.5-.97,2.85-1.36,3.98-.35,1.02-.57,1.65-.52,1.67,.04,.02,.34-.58,.75-1.58,.41-1,.94-2.4,1.46-3.96,.52-1.56,.94-3,1.2-4.04,.27-1.05,.39-1.7,.34-1.72Z"/>
        <path class="cls-12" d="M326.05,238.81s.2,0,.55-.03c.33-.02,.89-.05,1.3,.36,.2,.2,.28,.5,.2,.83-.07,.33-.25,.67-.44,1.05-.18,.37-.38,.85-.24,1.37,.14,.5,.55,.9,1.05,1.08,.51,.18,1.06,.09,1.5-.14,.44-.23,.79-.55,1.01-.96,.39-.78,.57-1.51,.68-2.14,.1-.63,.11-1.16,.04-1.51-.07-.36-.19-.53-.2-.52-.03,.01,.04,.19,.07,.53,.03,.34-.01,.84-.15,1.45-.14,.6-.35,1.33-.72,2.03-.37,.64-1.28,1.21-2.1,.92-.4-.14-.73-.47-.84-.84-.11-.38,.03-.78,.2-1.14,.17-.37,.37-.74,.43-1.14,.08-.39-.04-.83-.31-1.06-.55-.47-1.16-.37-1.49-.32-.35,.07-.53,.14-.53,.16Z"/>
        <path class="cls-12" d="M329.91,243.03s-.12,.15-.11,.49c0,.32,.17,.83,.68,1.17,.5,.34,1.31,.4,2.02,.03,.71-.36,1.27-1.09,1.55-1.93,.28-.85,.27-1.73,.04-2.46-.23-.74-.66-1.3-1.09-1.68-.43-.38-.85-.59-1.15-.7-.3-.11-.48-.13-.48-.11-.03,.06,.68,.22,1.46,.99,.38,.38,.76,.92,.95,1.6,.2,.67,.2,1.48-.06,2.26-.26,.77-.76,1.43-1.37,1.75-.6,.33-1.3,.3-1.74,.04-.44-.26-.63-.69-.68-.98-.05-.29,0-.46-.02-.47Z"/>
        <path class="cls-12" d="M322.29,246.72s-.27-.19-.8-.25c-.52-.06-1.32,0-2.09,.48l.25,.17c.08-.36,.15-.76,.19-1.17,.24-2.3-.47-4.09-.55-4.04-.1,.02,.43,1.79,.2,4.01-.04,.4-.1,.78-.17,1.14l-.08,.39,.33-.22c.68-.44,1.4-.55,1.9-.55,.5,0,.8,.09,.81,.04Z"/>
        <path class="cls-12" d="M327.22,232.59c-.09,.01,.03,.72,.66,1.27,.62,.56,1.34,.6,1.34,.51,.02-.1-.57-.28-1.11-.77-.55-.48-.79-1.04-.89-1.01Z"/>
      </g>
    </g>
    <g>
      <g>
        <g>
          <path class="cls-13" d="M322.52,258.53l-12.88-6.63-11.05,17.75-19.82-16.16c-5.83-4.44-11.62-5.54-11.62-5.54l-1.12,3.53,3.45,29.13s22.25,14.09,28.05,14.66c12.11,1.2,24.99-36.75,24.99-36.75Z"/>
          <path class="cls-13" d="M275.61,310.43l-2.49-41.02-5.97-21.45-18.73-2.21-22.31,1.36-18.84,10.54,3.1,32.92,4.54,34.49-2.74,27.32c3.86,3.59,16.19,8.14,34.7,7.02,18.51-1.12,30.82-9.65,30.82-9.65l-2.08-39.31Z"/>
        </g>
        <path class="cls-13" d="M194.75,367.21c0-.85-8.87-44.14-8.72-46.17,1.22-15.94,8.97-41.5,11.33-49.51,3.56-12.09,10.77-14.24,10.77-14.24,0,0,3.12,4.59,5.66,13.7,2.54,9.11-.03,18.82-.03,18.82l-7.25,29.41,4.56,46.71-16.32,1.28Z"/>
      </g>
      <path class="cls-16" d="M270.54,263.75s.23,.57,.55,1.64c.33,1.06,.74,2.62,1.19,4.55,.43,1.94,.89,4.27,1.24,6.87,.35,2.61,.63,5.49,.81,8.51,.35,6.05,.49,11.53,.72,15.49,.11,1.91,.19,3.49,.26,4.69,.06,1.11,.07,1.72,.04,1.73-.04,0-.12-.6-.25-1.71-.13-1.1-.27-2.7-.44-4.68-.32-3.96-.53-9.44-.88-15.48-.18-3.02-.44-5.88-.76-8.48-.33-2.6-.74-4.92-1.12-6.86-.4-1.94-.75-3.5-1.01-4.58-.26-1.08-.38-1.68-.34-1.69Z"/>
      <path class="cls-16" d="M299.93,283.16c-.06,.03-.46-.69-.9-1.94-.44-1.25-.89-3.04-1.08-5.05-.18-2.02-.07-3.86,.14-5.17,.2-1.31,.46-2.09,.52-2.08,.17,.03-.49,3.23-.11,7.19,.33,3.97,1.6,6.99,1.43,7.04Z"/>
      <path class="cls-16" d="M213.75,290.56c.15,.04-1.3,6.35-3.22,14.1-1.93,7.75-3.61,14.01-3.76,13.97-.15-.04,1.3-6.35,3.22-14.1,1.93-7.75,3.61-14,3.76-13.97Z"/>
      <path class="cls-16" d="M213.5,275.75c-.15,.07-1.28-2.54-3.36-5.32-2.06-2.8-4.22-4.64-4.11-4.76,.07-.11,2.45,1.58,4.55,4.44,2.12,2.85,3.05,5.61,2.92,5.65Z"/>
    </g>
    <g>
      <g>
        <g>
          <path class="cls-13" d="M254.04,363.03c8.52-1.61,17.6-.67,26.04,3.26,10.4,4.84,18.29,13.44,22.22,24.22,3.93,10.78,3.43,22.44-1.41,32.84-9.99,21.47-35.59,30.8-57.05,20.81h0c-10.4-4.84-18.29-13.44-22.22-24.22-3.93-10.78-3.43-22.44,1.41-32.84,6.06-13.02,17.87-21.58,31.01-24.07Zm15.31,81.56c12.26-2.32,23.28-10.3,28.93-22.46,4.52-9.7,4.98-20.58,1.32-30.64-3.67-10.05-11.03-18.08-20.73-22.59-9.7-4.52-20.58-4.98-30.64-1.32-10.05,3.67-18.08,11.03-22.59,20.73-4.52,9.7-4.98,20.58-1.32,30.64,3.67,10.05,11.03,18.08,20.73,22.59,7.88,3.67,16.35,4.54,24.3,3.04Z"/>
          <path class="cls-9" d="M261.89,450.25c-6.47,0-12.9-1.41-18.93-4.22-10.9-5.07-19.17-14.09-23.29-25.39-4.12-11.3-3.6-23.52,1.48-34.42,6.1-13.1,18.25-22.54,32.51-25.23,9.29-1.76,18.73-.58,27.3,3.42,10.9,5.07,19.17,14.09,23.29,25.39,4.12,11.3,3.6,23.52-1.48,34.42-5.07,10.89-14.08,19.15-25.39,23.28-5.05,1.84-10.27,2.76-15.48,2.76Zm.09-83.04c-4.39,0-8.79,.77-13.04,2.32-9.53,3.48-17.14,10.46-21.43,19.66-4.28,9.2-4.73,19.52-1.25,29.05,3.48,9.53,10.46,17.14,19.66,21.43,7.23,3.37,15.2,4.36,23.04,2.88h0c12.04-2.28,22.29-10.24,27.44-21.29,4.28-9.2,4.73-19.52,1.25-29.05-3.48-9.53-10.46-17.14-19.66-21.43-5.1-2.37-10.55-3.57-16.01-3.57Z"/>
        </g>
        <path class="cls-9" d="M157.5,363.27l.38-.94c.82-2,2.6-3.17,3.99-2.6l62.75,25.53c.31,.13,.41,.59,.23,1.04l-2.67,6.57c-.18,.45-.58,.71-.89,.58l-62.75-25.53c-1.39-.56-1.85-2.65-1.03-4.65Z"/>
      </g>
      <path class="cls-1" d="M276.71,390.66c.1,.11-8.07,7.26-18.25,15.97-10.18,8.71-18.51,15.67-18.6,15.56-.1-.11,8.07-7.26,18.25-15.97,10.17-8.71,18.5-15.67,18.6-15.56Z"/>
      <path class="cls-1" d="M287.22,390.66c.1,.11-6.78,6.19-15.37,13.57-8.59,7.38-15.63,13.27-15.72,13.16s6.78-6.19,15.37-13.57c8.58-7.38,15.62-13.27,15.72-13.16Z"/>
      <path class="cls-16" d="M302.7,405.22s-.03-.22-.06-.66c-.03-.45-.07-1.1-.12-1.93-.03-.43-.05-.9-.08-1.42-.06-.52-.17-1.09-.26-1.7-.1-.62-.2-1.28-.32-1.98-.08-.71-.35-1.44-.53-2.22-.72-3.15-2.19-6.86-4.51-10.81-2.34-3.92-5.72-8.02-10.32-11.5-.58-.43-1.16-.87-1.75-1.31-.62-.4-1.26-.77-1.91-1.17-.65-.37-1.27-.82-1.98-1.14-.69-.33-1.4-.67-2.1-1.01-.35-.17-.71-.34-1.07-.51-.37-.14-.75-.27-1.12-.41-.75-.27-1.51-.55-2.28-.83-.77-.26-1.59-.42-2.39-.64-.81-.18-1.61-.47-2.45-.55-1.68-.24-3.37-.58-5.12-.59-.87-.03-1.75-.12-2.64-.1-.89,.05-1.78,.09-2.68,.14-.45,.03-.9,.03-1.35,.09l-1.35,.21c-.9,.15-1.82,.26-2.72,.44-1.79,.49-3.64,.85-5.4,1.58-1.82,.58-3.52,1.48-5.28,2.32-.85,.46-1.67,1-2.52,1.51-.41,.27-.86,.49-1.25,.79l-1.19,.89c-1.65,1.13-3.08,2.54-4.59,3.9-1.36,1.51-2.79,2.98-3.97,4.69l-.93,1.25-.82,1.33-.81,1.34c-.28,.44-.54,.9-.75,1.38-.46,.95-.91,1.9-1.37,2.85-.36,1-.73,1.99-1.1,3-1.32,4.06-2.03,8.38-2.09,12.77,.06,4.39,.77,8.71,2.09,12.77,.37,1,.73,2,1.1,3,.46,.96,.92,1.91,1.37,2.86l.35,.71,.41,.67,.81,1.34,.81,1.33,.93,1.25c1.17,1.71,2.6,3.19,3.97,4.69,1.51,1.36,2.95,2.77,4.59,3.9l1.19,.89c.39,.3,.84,.53,1.25,.79,.85,.5,1.67,1.04,2.52,1.51,1.76,.84,3.46,1.74,5.28,2.32,1.76,.74,3.61,1.1,5.4,1.59,.91,.19,1.82,.29,2.72,.44l1.35,.21c.45,.06,.9,.06,1.35,.09,.9,.05,1.79,.09,2.68,.14,.89,.01,1.77-.07,2.64-.1,1.75,0,3.45-.36,5.12-.59,.85-.09,1.64-.37,2.45-.56,.8-.22,1.61-.38,2.39-.64,.77-.28,1.53-.56,2.28-.83,.38-.14,.75-.27,1.12-.41,.36-.17,.72-.34,1.07-.51,.71-.34,1.41-.68,2.1-1.01,.7-.32,1.32-.77,1.98-1.14,.64-.4,1.29-.76,1.91-1.17,.59-.44,1.18-.88,1.75-1.31,4.6-3.48,7.98-7.58,10.32-11.5,2.32-3.94,3.79-7.66,4.51-10.8,.18-.79,.45-1.51,.53-2.22,.11-.71,.22-1.37,.32-1.98,.09-.61,.2-1.18,.26-1.7,.03-.52,.06-1,.08-1.42,.05-.84,.1-1.48,.12-1.93,.03-.44,.06-.66,.06-.66,0,0,0,.22,0,.66-.02,.46-.04,1.1-.07,1.94-.02,.43-.04,.91-.06,1.43-.05,.52-.15,1.09-.23,1.71-.09,.62-.19,1.28-.29,1.99-.08,.72-.33,1.45-.51,2.24-.69,3.17-2.14,6.92-4.46,10.91-2.33,3.97-5.72,8.12-10.35,11.65-.58,.44-1.17,.88-1.76,1.33-.62,.41-1.27,.79-1.92,1.19-.66,.38-1.29,.84-1.99,1.16-.7,.34-1.41,.68-2.12,1.03-.36,.17-.72,.34-1.08,.52-.38,.14-.75,.28-1.13,.42-.76,.28-1.53,.56-2.3,.85-.78,.26-1.6,.43-2.41,.65-.82,.19-1.62,.48-2.48,.57-1.69,.25-3.4,.6-5.18,.61-.88,.03-1.77,.12-2.67,.11-.9-.04-1.8-.09-2.71-.13-.45-.03-.91-.03-1.37-.09l-1.37-.21c-.91-.15-1.84-.25-2.76-.44-1.81-.49-3.69-.85-5.47-1.59-1.84-.59-3.57-1.49-5.35-2.34-.87-.47-1.7-1.01-2.56-1.52-.42-.27-.87-.5-1.27-.8l-1.21-.9c-1.67-1.14-3.13-2.57-4.66-3.95-1.38-1.52-2.83-3.02-4.02-4.75l-.94-1.26-.83-1.35-.83-1.36-.41-.68-.35-.72c-.46-.96-.93-1.92-1.39-2.89-.37-1.01-.74-2.02-1.11-3.04-1.34-4.12-2.06-8.49-2.12-12.94,.06-4.45,.78-8.82,2.12-12.94,.37-1.02,.74-2.03,1.11-3.04,.47-.97,.93-1.93,1.39-2.89,.22-.49,.48-.95,.77-1.4l.83-1.36,.83-1.35,.94-1.26c1.19-1.73,2.64-3.22,4.02-4.75,1.53-1.38,2.99-2.81,4.65-3.95l1.21-.9c.4-.3,.85-.53,1.27-.8,.86-.51,1.69-1.05,2.56-1.52,1.78-.85,3.51-1.76,5.35-2.34,1.78-.74,3.66-1.11,5.47-1.59,.92-.19,1.85-.29,2.76-.44l1.37-.21c.45-.06,.91-.06,1.37-.09,.91-.04,1.81-.09,2.71-.13,.9-.01,1.79,.08,2.67,.11,1.77,.02,3.49,.37,5.18,.61,.85,.09,1.66,.38,2.48,.57,.81,.22,1.63,.39,2.41,.65,.77,.28,1.54,.57,2.3,.85,.38,.14,.76,.28,1.13,.42,.36,.17,.72,.34,1.08,.52,.71,.35,1.42,.69,2.12,1.03,.71,.32,1.33,.78,1.99,1.16,.65,.4,1.3,.78,1.92,1.19,.6,.45,1.18,.89,1.76,1.33,4.63,3.53,8.01,7.69,10.35,11.65,2.32,3.99,3.77,7.74,4.46,10.91,.18,.79,.43,1.52,.51,2.24,.1,.71,.2,1.38,.29,2,.08,.62,.19,1.19,.23,1.71,.02,.52,.04,1,.06,1.43,.03,.84,.05,1.48,.07,1.94,.01,.44,0,.66,0,.66Z"/>
      <path class="cls-16" d="M287.66,426.85s.35-.51,1.02-1.39c.67-.88,1.6-2.19,2.59-3.89,2.01-3.37,4.17-8.5,4.79-14.49,.63-5.99-.42-11.46-1.68-15.18-.62-1.87-1.26-3.34-1.73-4.34-.47-1-.75-1.55-.71-1.57,.02,0,.1,.12,.26,.37,.15,.25,.39,.61,.64,1.11,.53,.98,1.23,2.43,1.9,4.31,1.37,3.72,2.5,9.27,1.86,15.36-.64,6.09-2.89,11.27-5,14.63-1.05,1.69-2.03,2.98-2.76,3.82-.35,.43-.66,.74-.86,.95-.2,.21-.32,.32-.33,.3Z"/>
      <path class="cls-16" d="M285.51,430.58c.07,.13-.25,.45-.72,.72-.47,.27-.91,.38-.98,.25-.07-.13,.25-.45,.72-.72,.47-.27,.91-.38,.98-.25Z"/>
      <path class="cls-1" d="M232.07,422.67s-.1-.16-.25-.49c-.14-.33-.38-.81-.61-1.45-.5-1.27-1.12-3.15-1.64-5.53-1.07-4.74-1.5-11.68,.46-18.93,1.96-7.25,5.83-13.03,9.14-16.59,1.65-1.8,3.14-3.11,4.21-3.95,.52-.44,.97-.73,1.25-.94,.29-.21,.45-.31,.46-.29,.03,.04-.56,.51-1.58,1.4-1.02,.89-2.46,2.23-4.06,4.05-3.21,3.59-6.97,9.33-8.9,16.47-1.93,7.14-1.57,13.99-.6,18.71,.47,2.37,1.03,4.26,1.47,5.54,.44,1.28,.71,1.99,.66,2Z"/>
      <path class="cls-1" d="M256.13,371.86c.01,.15-1.06,.36-2.4,.47-1.34,.11-2.43,.08-2.45-.07-.01-.15,1.06-.36,2.4-.47,1.34-.11,2.43-.08,2.45,.07Z"/>
      <g>
        <path class="cls-11" d="M208.9,366.1l.3,2.34,4.53,5.41,3.24,8.32-4.89-1.93s-2.09,10.01-2.91,10.28c-.82,.27-3.17-.55-2.94-2.47,0,0-1.17,1.18-2.64,.87-1.47-.31-1.82-1.25-1.66-3.08,0,0-1.71,1.39-2.74,.53-1.02-.87-.93-2.38-.93-2.38,0,0-2.23,.19-2.54-.97-.31-1.16-.39-4.46-.12-5.72,.26-1.26,1.33-6.4,1.33-6.4l-.82-3.69,12.79-1.11Z"/>
        <path class="cls-12" d="M207.33,382.28c-.13-.02-.47,1.25-.78,2.84-.3,1.59-.45,2.91-.32,2.93,.13,.02,.47-1.25,.78-2.84,.3-1.59,.45-2.91,.32-2.93Z"/>
        <path class="cls-12" d="M202.79,381.12c-.13-.03-.44,.99-.69,2.27-.26,1.28-.36,2.33-.24,2.36s.43-.99,.69-2.27c.26-1.28,.36-2.33,.24-2.36Z"/>
        <path class="cls-12" d="M199,380.06c-.14,0-.24,.9-.41,1.96-.17,1.06-.45,1.91-.33,1.96,.11,.05,.6-.75,.78-1.89,.17-1.13,.06-2.03-.05-2.04Z"/>
        <path class="cls-12" d="M212.46,377.36c-.13-.02-.45,1.23-.83,2.78-.37,1.55-.66,2.81-.53,2.85,.12,.04,.61-1.18,.98-2.74,.38-1.56,.5-2.87,.38-2.89Z"/>
      </g>
    </g>
    <g>
      <g>
        <path class="cls-16" d="M224.54,226.09c-1.43-3.9-2.84-7.84-3.57-11.93-.73-4.09-.76-8.38,.54-12.33,.2-.6,1.93-4.62,2.55-4.59,.45,.03-.57,3.76-.33,4.14,2.29,3.63,3.04,8.08,2.85,12.37-.19,4.29-.94,8.18-2.05,12.33"/>
        <path class="cls-11" d="M257.94,207.66c-.61-9.6-8.48-17.12-18.1-17.28l-1.13-.02c-10.41,.43-15.07,9.76-14.36,20.15l1.76,36.59,3.54,3.43c6.09,5.9,16.25,3.3,18.77-4.79h0c-.08-2.93,.12-2.72,.14-2.72,0,0,10.03-1.38,10.33-11.38,.14-4.86-.38-14.92-.95-23.98Z"/>
        <path class="cls-12" d="M248.56,243.02s-6.31,.26-12.95-4.08c0,0,3.05,7.33,13.04,6.6l-.09-2.53Z"/>
        <path class="cls-16" d="M254.9,217.13c.01,.75-.61,1.39-1.4,1.42-.79,.03-1.44-.56-1.45-1.31-.01-.75,.61-1.39,1.4-1.42,.79-.03,1.44,.56,1.45,1.31Z"/>
        <path class="cls-16" d="M241.6,217.01c.01,.75-.61,1.39-1.4,1.42-.79,.03-1.44-.56-1.45-1.31-.01-.75,.61-1.39,1.4-1.42,.79-.03,1.44,.56,1.45,1.31Z"/>
        <path class="cls-16" d="M255.42,213.17c-.18,.18-1.25-.64-2.79-.66-1.53-.04-2.68,.73-2.84,.54-.08-.08,.11-.42,.6-.77,.49-.35,1.32-.68,2.28-.66,.96,.02,1.76,.39,2.21,.76,.47,.37,.62,.71,.53,.79Z"/>
        <path class="cls-16" d="M241.1,213.23c-.18,.18-1.25-.64-2.79-.66-1.53-.04-2.68,.73-2.84,.54-.08-.08,.1-.42,.6-.77,.49-.35,1.32-.68,2.28-.66,.96,.02,1.76,.39,2.21,.76,.46,.37,.62,.71,.53,.79Z"/>
        <path class="cls-16" d="M246.05,225.28c0-.09,.95-.24,2.5-.41,.39-.03,.77-.11,.84-.37,.1-.28-.06-.71-.24-1.17-.35-.96-.72-1.96-1.11-3.01-1.54-4.28-2.64-7.8-2.47-7.86,.17-.06,1.56,3.36,3.1,7.64,.37,1.06,.72,2.06,1.06,3.03,.14,.45,.39,.96,.18,1.54-.11,.29-.4,.5-.65,.56-.25,.07-.47,.07-.67,.08-1.56,.06-2.53,.05-2.53-.04Z"/>
        <path class="cls-16" d="M240.98,208.32c-.19,.4-1.7,.07-3.51,.12-1.82,.02-3.31,.41-3.52,.02-.09-.19,.2-.56,.82-.91,.62-.35,1.58-.65,2.67-.67,1.09-.02,2.06,.24,2.69,.56,.64,.33,.94,.68,.85,.87Z"/>
        <path class="cls-16" d="M256.02,207.42c-.23,.41-1.51,.32-2.96,.61-1.46,.25-2.62,.81-2.98,.51-.16-.15-.04-.53,.42-.97,.46-.44,1.28-.89,2.28-1.08,1-.19,1.93-.07,2.51,.17,.59,.24,.83,.55,.73,.75Z"/>
        <path class="cls-11" d="M225.04,217.86c-.17-.08-6.84-2.15-6.74,4.69,.1,6.84,6.95,5.33,6.96,5.13,0-.2-.22-9.82-.22-9.82Z"/>
        <path class="cls-12" d="M223.02,225.14s-.12,.09-.32,.18c-.19,.09-.53,.16-.89,.03-.73-.25-1.35-1.39-1.4-2.63-.03-.62,.1-1.22,.31-1.71,.2-.5,.52-.86,.88-.93,.36-.09,.62,.13,.71,.32,.09,.19,.05,.33,.09,.34,.02,.02,.15-.12,.09-.4-.03-.14-.11-.3-.28-.42-.17-.13-.41-.2-.66-.16-.53,.04-1,.54-1.23,1.08-.26,.55-.41,1.21-.39,1.91,.06,1.38,.79,2.66,1.78,2.93,.48,.12,.88-.03,1.09-.2,.21-.17,.24-.33,.22-.34Z"/>
        <path class="cls-16" d="M253.26,196.6c1.09-.64-2.31-4.14-5.06-5.31-4.15-1.77-10.46-2.77-14.22-1.61-4.53,1.4-8.27,3.76-10.47,7.97-2.19,4.21-2.94,9.07-2.7,13.8,.07,1.45,.26,2.95,1.06,4.16,.99,1.49,2.85,2.4,2.81,4.49-.01,.76,.22,1.53,.76,2.07,1.28,1.3,2.78,.02,3.46-1.25,1.44-2.71,1.53-5.92,1.59-8.99,.04-2.18,.08-4.41-.58-6.49-.36-1.13-.92-2.2-1.22-3.35-.3-1.15-.29-2.46,.4-3.43,.11-.16,.3-.35,.54-.57,1.9-1.74,4.6-2.31,7.04-1.51,3.88,1.27,10.51,3.15,12.19,1.81,2.43-1.94,2.99-3.18,2.99-3.18l1.39,1.4Z"/>
      </g>
      <path class="cls-16" d="M247.04,229.44c.03,.11-.35,.33-1.04,.42-.68,.09-1.66-.01-2.63-.47-.96-.46-1.66-1.16-2.02-1.74-.37-.59-.43-1.02-.33-1.07,.23-.12,1.06,1.23,2.73,2,1.65,.82,3.22,.61,3.27,.86Z"/>
    </g>
    <g>
      <polygon class="cls-13" points="223.16 248.76 225.92 243.07 242.13 250.79 248.65 244.02 250.35 247.96 242.13 257.28 238.6 257.28 231.19 255.97 223.16 248.76"/>
      <path class="cls-16" d="M241.55,250.85s-.13,.75-.62,1.94c-.49,1.19-1.32,2.83-2.61,4.55l-.13,.18-.2-.11c-1.23-.72-2.57-1.49-3.96-2.3-2.82-1.65-5.35-3.18-7.17-4.3-1.82-1.13-2.93-1.86-2.89-1.92,.04-.07,1.21,.55,3.08,1.59s4.43,2.51,7.25,4.17c1.39,.83,2.72,1.61,3.94,2.34l-.33,.06c2.59-3.34,3.49-6.25,3.63-6.19Z"/>
      <path class="cls-16" d="M249.86,245.46c.05,0,.26,.97,.12,2.56-.13,1.58-.67,3.77-1.94,5.86-.56,.92-1.2,1.73-1.86,2.4l-.18,.19-.18-.18c-1.2-1.18-2.06-2.34-2.6-3.2-.54-.86-.78-1.41-.73-1.43,.12-.08,1.29,2,3.69,4.26h-.36c.62-.65,1.23-1.43,1.76-2.32,1.22-2.01,1.81-4.1,2.03-5.62,.24-1.53,.17-2.51,.27-2.51Z"/>
      <path class="cls-16" d="M253.17,357.17s-.02-.09-.03-.27c0-.21-.02-.48-.03-.8-.02-.75-.04-1.78-.07-3.09-.04-2.69-.13-6.57-.28-11.38-.31-9.6-.97-22.86-2.55-37.43-.8-7.29-1.76-14.2-2.75-20.47-1.04-6.26-2.06-11.89-3.07-16.59-.46-2.36-.96-4.47-1.37-6.33-.4-1.86-.78-3.46-1.1-4.77-.3-1.28-.54-2.28-.71-3.01-.07-.32-.13-.58-.17-.79-.04-.18-.05-.27-.04-.27s.04,.09,.09,.26c.06,.2,.13,.46,.22,.77,.2,.72,.47,1.72,.81,2.99,.35,1.3,.76,2.89,1.19,4.75,.44,1.86,.96,3.97,1.45,6.32,1.05,4.69,2.12,10.32,3.19,16.59,1.02,6.28,1.99,13.2,2.79,20.5,1.58,14.59,2.18,27.87,2.39,37.48,.1,4.81,.13,8.7,.11,11.38-.01,1.31-.03,2.34-.03,3.1,0,.33-.02,.59-.02,.8,0,.18-.02,.27-.03,.27Z"/>
    </g>
  </g>
</svg>